<svg width="10" height="7" viewBox="0 0 10 7" fill="none" xmlns="http://www.w3.org/2000/svg">
<path d="M3.23444 5.46526L3.49961 5.73043L3.76477 5.46526L8.18977 1.04026L7.92461 0.775097L8.18977 1.04026C8.25008 0.979961 8.32641 0.943848 8.44961 0.943848C8.57281 0.943848 8.64914 0.97996 8.70944 1.04026C8.76975 1.10057 8.80586 1.1769 8.80586 1.3001C8.80586 1.4233 8.76975 1.49963 8.70944 1.55993L3.75944 6.50993C3.67504 6.59434 3.59365 6.6251 3.49961 6.6251C3.40557 6.6251 3.32418 6.59434 3.23977 6.50993L1.28977 4.55993C1.22947 4.49963 1.19336 4.4233 1.19336 4.3001C1.19336 4.17689 1.22947 4.10056 1.28977 4.04026C1.35008 3.97996 1.42641 3.94385 1.54961 3.94385C1.67281 3.94385 1.74914 3.97996 1.80944 4.04026L3.23444 5.46526Z" fill="white" stroke="white" stroke-width="0.75"/>
</svg>
