<svg width="39" height="29" viewBox="0 0 39 29" fill="none" xmlns="http://www.w3.org/2000/svg">
<path d="M20.8595 6.40108L9.03662 4.02087L6.42725 5.68233L14.995 12.2813C16.9533 10.323 18.9064 8.36462 20.8595 6.40108Z" fill="white"/>
<mask id="mask0_2568_6550" style="mask-type:luminance" maskUnits="userSpaceOnUse" x="23" y="12" width="10" height="17">
<path d="M23.5415 12.9427H32.8748V29H23.5415V12.9427Z" fill="white"/>
</mask>
<g mask="url(#mask0_2568_6550)">
<path d="M23.9219 19.8854L31.1771 29.3021L32.8385 26.6927L30.3333 14.2656C28.151 16.0885 26.0365 17.9844 23.9219 19.8854Z" fill="white"/>
</g>
<mask id="mask1_2568_6550" style="mask-type:luminance" maskUnits="userSpaceOnUse" x="0" y="0" width="39" height="28">
<path d="M0 0H38.2083V27.6094H0V0Z" fill="white"/>
</mask>
<g mask="url(#mask1_2568_6550)">
<path d="M36.7814 0.713602C35.3075 -0.00514908 29.6825 0.661517 27.8231 2.06256C25.0783 4.14069 8.31787 21.3907 8.31787 21.3907L1.98975 22.573L0.0366211 25.2657C0.0366211 25.2657 3.26579 25.8594 6.53141 26.4896C8.04704 26.7865 10.6304 26.0001 10.6304 26.0001C18.2345 24.2605 42.62 3.55735 36.7814 0.713602ZM35.7606 3.11985C35.646 3.66673 35.2814 4.14068 34.8804 4.51568C34.6668 4.7136 34.4377 4.88548 34.1929 5.04693C34.0731 5.13027 33.6095 5.31256 33.5575 5.42714C35.3752 1.56256 31.9012 1.18756 31.9012 1.18756C32.7241 1.00006 33.7293 0.755269 34.5679 1.01048C35.4585 1.28131 35.9429 2.22923 35.7606 3.11985Z" fill="white"/>
</g>
</svg>
