<svg xmlns="http://www.w3.org/2000/svg" width="18" height="14" viewBox="0 0 18 14" fill="none">
  <path d="M15.75 0.25H2.25C1.00744 0.25 0 1.25744 0 2.5V11.5C0 12.7426 1.00744 13.75 2.25 13.75H15.75C16.9926 13.75 18 12.7426 18 11.5V2.5C18 1.25744 16.9926 0.25 15.75 0.25ZM12.0465 6.25402L16.8091 2.17259C16.8421 2.27806 16.875 2.38353 16.875 2.5V11.5C16.875 11.578 16.8453 11.6472 16.83 11.7208L12.0465 6.25402ZM15.75 1.375C15.8247 1.375 15.8906 1.40358 15.9609 1.41786L9 7.38454L2.03906 1.41786C2.10938 1.40358 2.17529 1.375 2.25 1.375H15.75ZM1.16951 11.7197C1.15411 11.6461 1.125 11.578 1.125 11.5V2.5C1.125 2.38353 1.1585 2.27806 1.19148 2.17259L5.95241 6.25293L1.16951 11.7197ZM2.25 12.625C2.1363 12.625 2.03302 12.592 1.9292 12.5602L6.80713 6.98569L8.63416 8.55123C8.73907 8.64246 8.86982 8.6875 9 8.6875C9.13018 8.6875 9.26093 8.64246 9.36584 8.55127L11.1929 6.98573L16.0708 12.5602C15.9675 12.592 15.8643 12.625 15.75 12.625H2.25Z" fill="white"/>
</svg>