<svg xmlns="http://www.w3.org/2000/svg" width="18" height="18" viewBox="0 0 18 18" fill="none">
  <path d="M15.2625 2.24322C14.3705 3.11478 13.4821 3.97915 12.6121 4.82911C12.2361 4.61301 11.8712 4.36451 11.4731 4.18443C9.95806 3.50015 8.42828 3.50375 6.91693 4.18083C5.50142 4.8183 4.52457 5.87354 4.04905 7.32135C3.45188 9.14012 3.76152 10.8364 4.97798 12.3383C5.85898 13.4295 7.0312 14.0634 8.44302 14.2579C9.49728 14.4019 10.5294 14.2903 11.5136 13.9013C12.8997 13.3503 13.777 12.3635 14.1198 10.9301C14.1235 10.9085 14.1235 10.8833 14.1272 10.84C12.4905 10.84 10.8612 10.84 9.22082 10.84C9.22082 9.67675 9.22082 8.53506 9.22082 7.37177C9.30191 7.36817 9.37932 7.36097 9.45673 7.36097C12.1587 7.36097 14.8644 7.36457 17.5664 7.35377C17.7765 7.35377 17.8208 7.44381 17.8503 7.60587C18.0051 8.40181 18.0383 9.20134 17.9572 10.0081C17.8613 10.9373 17.6696 11.8413 17.3158 12.7128C16.6154 14.4452 15.4653 15.8065 13.8286 16.7645C11.8933 17.899 9.79218 18.2231 7.58782 17.8558C5.46456 17.4992 3.68411 16.5016 2.26123 14.9206C1.34705 13.9049 0.713018 12.738 0.34071 11.4343C-0.0315984 10.1305 -0.0942641 8.80518 0.130595 7.47622C0.403376 5.87715 1.08164 4.44734 2.15433 3.20482C3.41133 1.74981 4.98166 0.762994 6.86901 0.298399C9.18027 -0.270641 11.4104 -0.0329407 13.5263 1.07272C14.153 1.40046 14.7317 1.79303 15.2625 2.24322Z" fill="white"/>
</svg>