<svg width="244" height="139" viewBox="0 0 244 139" fill="none" xmlns="http://www.w3.org/2000/svg">
<mask id="mask0_2293_6430" style="mask-type:luminance" maskUnits="userSpaceOnUse" x="169" y="24" width="30" height="31">
<path d="M169.333 24.9429H198.666V54.2762H169.333V24.9429Z" fill="white"/>
</mask>
<g mask="url(#mask0_2293_6430)">
<mask id="mask1_2293_6430" style="mask-type:luminance" maskUnits="userSpaceOnUse" x="-8" y="24" width="215" height="84">
<path d="M-7.11523 65.2188L197.827 24.2344L206.26 66.401L1.31706 107.385L-7.11523 65.2188Z" fill="white"/>
</mask>
<g mask="url(#mask1_2293_6430)">
<mask id="mask2_2293_6430" style="mask-type:luminance" maskUnits="userSpaceOnUse" x="-8" y="24" width="215" height="84">
<path d="M-7.11523 65.2188L197.827 24.2344L206.26 66.401L1.31706 107.385L-7.11523 65.2188Z" fill="white"/>
</mask>
<g mask="url(#mask2_2293_6430)">
<path d="M184.874 53.1459C184.452 53.2293 183.999 53.1772 183.588 52.974C182.604 52.4793 182.202 51.2813 182.697 50.2918L192.176 31.2761L171.932 36.9376C170.885 37.2501 169.775 36.6147 169.473 35.5522C169.176 34.4897 169.801 33.3855 170.859 33.0886L195.437 26.2188C196.14 26.0209 197.01 26.2605 197.515 26.8699C198.015 27.4793 198.114 28.3282 197.76 29.0313L186.265 52.0782C185.984 52.6511 185.452 53.0261 184.874 53.1459Z" fill="white"/>
</g>
</g>
</g>
<mask id="mask3_2293_6430" style="mask-type:luminance" maskUnits="userSpaceOnUse" x="0" y="26" width="196" height="81">
<path d="M0 26.2764H196V106.276H0V26.2764Z" fill="white"/>
</mask>
<g mask="url(#mask3_2293_6430)">
<mask id="mask4_2293_6430" style="mask-type:luminance" maskUnits="userSpaceOnUse" x="-8" y="24" width="215" height="84">
<path d="M-7.11426 65.2192L197.828 24.2349L206.261 66.4015L1.31803 107.386L-7.11426 65.2192Z" fill="white"/>
</mask>
<g mask="url(#mask4_2293_6430)">
<mask id="mask5_2293_6430" style="mask-type:luminance" maskUnits="userSpaceOnUse" x="-8" y="24" width="215" height="84">
<path d="M-7.11426 65.2192L197.828 24.2349L206.261 66.4015L1.31803 107.386L-7.11426 65.2192Z" fill="white"/>
</mask>
<g mask="url(#mask5_2293_6430)">
<path d="M118.693 67.8494C115.443 70.7296 113.063 73.6775 112.688 76.089C112.505 77.2453 112.797 78.2088 113.604 79.1203C114.427 80.0578 115.078 80.4275 115.672 80.2453C117.308 79.6671 119.12 75.5369 119.235 72.9953C119.318 71.1307 119.136 69.4171 118.693 67.8494ZM116.328 84.1932C114.959 84.4692 112.828 84.2869 110.604 81.7609C109.021 79.9692 108.375 77.7921 108.74 75.4744C109.365 71.4484 113.037 67.3703 116.938 64.0734C115.943 62.6098 114.625 61.3025 112.974 60.1463C98.9742 50.3338 65.3492 54.7296 54.2971 59.2817C36.7398 66.5213 13.2242 82.6463 4.73461 104.277C4.32836 105.303 3.17211 105.803 2.14086 105.407C1.11482 105.006 0.609611 103.844 1.01065 102.813C9.96378 80.0161 34.4898 63.1255 52.7763 55.589C63.8648 51.0265 99.4898 45.813 115.266 56.8755C117.24 58.2557 118.844 59.8338 120.084 61.5994C122.558 59.7765 124.802 58.3755 126.073 57.6203C133.089 53.4484 141.922 51.2296 151.281 48.8755C166.531 45.0421 182.302 41.0838 191.698 28.2348C192.349 27.3494 193.599 27.1515 194.49 27.8025C195.375 28.4536 195.573 29.7036 194.922 30.5942C184.672 44.6046 167.448 48.9328 152.25 52.7505C143.188 55.0265 134.63 57.1775 128.115 61.0525C126.047 62.2817 123.953 63.6828 121.995 65.1515C122.943 67.5578 123.349 70.2348 123.224 73.1671C123.094 76.1307 121.078 82.5682 117 84.0057C116.808 84.0786 116.578 84.1411 116.328 84.1932Z" fill="white"/>
</g>
</g>
</g>
<path d="M226.651 6.4012L214.828 4.021L212.219 5.68245L220.786 12.2814C222.745 10.3231 224.698 8.36475 226.651 6.4012Z" fill="white"/>
<mask id="mask6_2293_6430" style="mask-type:luminance" maskUnits="userSpaceOnUse" x="229" y="12" width="10" height="17">
<path d="M229.333 12.9429H238.666V29.0002H229.333V12.9429Z" fill="white"/>
</mask>
<g mask="url(#mask6_2293_6430)">
<path d="M229.713 19.8854L236.968 29.3021L238.63 26.6927L236.124 14.2656C233.942 16.0885 231.827 17.9844 229.713 19.8854Z" fill="white"/>
</g>
<mask id="mask7_2293_6430" style="mask-type:luminance" maskUnits="userSpaceOnUse" x="205" y="0" width="39" height="28">
<path d="M205.791 0H243.999V27.6094H205.791V0Z" fill="white"/>
</mask>
<g mask="url(#mask7_2293_6430)">
<path d="M242.572 0.713602C241.098 -0.00514907 235.473 0.661517 233.614 2.06256C230.869 4.14069 214.108 21.3907 214.108 21.3907L207.78 22.573L205.827 25.2657C205.827 25.2657 209.056 25.8594 212.322 26.4896C213.838 26.7865 216.421 26.0001 216.421 26.0001C224.025 24.2605 248.41 3.55735 242.572 0.713602ZM241.551 3.11985C241.437 3.66673 241.072 4.14068 240.671 4.51569C240.457 4.7136 240.228 4.88548 239.983 5.04694C239.864 5.13027 239.4 5.31256 239.348 5.42714C241.166 1.56256 237.692 1.18756 237.692 1.18756C238.515 1.00006 239.52 0.755269 240.358 1.01048C241.249 1.28131 241.733 2.22923 241.551 3.11985Z" fill="white"/>
</g>
<path d="M77.0742 111.7C77.0742 112.898 77.1055 114.132 77.1784 115.408C77.2461 116.69 77.3451 117.966 77.4701 119.242C77.5378 119.898 77.6055 120.528 77.6784 121.138C77.7617 121.752 77.8451 122.377 77.9284 123.013C78.0951 124.263 78.2878 125.466 78.5117 126.617C78.5951 127.065 78.668 127.507 78.7409 127.95C78.8086 128.398 78.8503 128.841 78.8659 129.283C78.8919 129.731 78.918 130.174 78.9492 130.617C78.9753 131.065 79.0221 131.502 79.0951 131.929C79.1211 132.221 79.2096 132.45 79.3659 132.617C79.4596 132.841 79.6003 132.981 79.7826 133.033C79.8503 133.085 79.9336 133.127 80.0326 133.158C80.1263 133.184 80.2201 133.221 80.3034 133.263C80.3867 133.263 80.4596 133.268 80.5326 133.283C80.6159 133.294 80.6992 133.304 80.7826 133.304C80.8503 133.304 80.9336 133.294 81.0326 133.283C81.1263 133.268 81.2305 133.252 81.3451 133.242C81.4544 133.2 81.5586 133.158 81.6576 133.117C81.7669 133.085 81.8659 133.044 81.9492 132.971C82.168 132.82 82.3346 132.638 82.4492 132.429C82.5326 132.236 82.5742 131.929 82.5742 131.513C82.5013 130.429 82.4076 129.361 82.2826 128.304C82.2096 127.778 82.1419 127.263 82.0742 126.763C82.0169 126.252 81.9701 125.757 81.9284 125.283C81.8451 124.658 81.7513 124.028 81.6576 123.388C81.5586 122.752 81.4596 122.091 81.3659 121.408C81.2826 120.773 81.1992 120.127 81.1159 119.471C81.043 118.82 80.9753 118.158 80.9076 117.492C81.5013 117.549 82.0951 117.611 82.6784 117.679C83.2617 117.752 83.8294 117.825 84.3867 117.908C85.4961 118.106 86.6211 118.236 87.7617 118.304C88.2878 118.346 88.7044 118.179 89.0117 117.804C89.2617 117.486 89.418 117.138 89.4909 116.763C89.4909 116.669 89.4909 116.57 89.4909 116.471C89.4909 116.377 89.4753 116.273 89.4492 116.158C89.4336 116.049 89.4076 115.945 89.3659 115.846C89.3242 115.752 89.2826 115.658 89.2409 115.575C89.0846 115.382 88.918 115.231 88.7409 115.117C88.5326 115.007 88.2721 114.945 87.9701 114.929C86.6628 114.861 85.4284 114.731 84.2617 114.533C83.6471 114.45 83.043 114.377 82.4492 114.304C81.8659 114.236 81.2669 114.174 80.6576 114.117C80.6263 113.898 80.6159 113.679 80.6159 113.471C80.6159 113.263 80.6159 113.054 80.6159 112.846C80.6003 112.653 80.5951 112.45 80.5951 112.242C80.5951 112.023 80.5951 111.799 80.5951 111.575C80.5951 111.075 80.4284 110.695 80.0951 110.429C79.7617 110.179 79.3503 110.054 78.8659 110.054C78.3086 110.054 77.8763 110.179 77.5742 110.429C77.2409 110.721 77.0742 111.148 77.0742 111.7ZM64.5534 112.971C64.4128 113.486 64.2826 113.981 64.1576 114.45C64.043 114.908 63.9336 115.361 63.8242 115.804C63.7253 116.21 63.6211 116.617 63.5117 117.033C63.3971 117.44 63.2878 117.841 63.1784 118.242L62.4909 120.658L61.5951 123.492C61.5117 123.716 61.4284 123.924 61.3451 124.117C61.2721 124.315 61.2201 124.486 61.1784 124.638C61.1055 124.794 61.043 124.945 60.9909 125.096C60.9336 125.236 60.8867 125.382 60.8451 125.533C60.7721 125.69 60.7096 125.856 60.6576 126.033C60.6159 126.2 60.5586 126.377 60.4909 126.554C60.4076 126.752 60.3138 126.96 60.2201 127.179C60.1367 127.403 60.0378 127.658 59.9284 127.95C59.9128 128.007 59.8867 128.07 59.8451 128.138C59.8138 128.21 59.7826 128.299 59.7409 128.408C59.668 128.507 59.6003 128.632 59.5326 128.783C59.4753 128.924 59.4076 129.075 59.3242 129.242C59.1263 129.7 59.1263 130.127 59.3242 130.513C59.4492 130.919 59.7409 131.216 60.1992 131.408C60.6992 131.674 61.1471 131.721 61.5534 131.554C61.8971 131.419 62.2044 131.174 62.4701 130.825C62.6628 130.549 62.8451 130.242 63.0117 129.908C63.1888 129.575 63.3451 129.216 63.4701 128.825C63.5794 128.45 63.6888 128.091 63.8034 127.742C63.9284 127.382 64.0586 127.028 64.1992 126.679C64.4336 126.054 64.6471 125.466 64.8451 124.908C65.0378 124.356 65.2096 123.825 65.3659 123.325C65.5326 122.825 65.6836 122.335 65.8242 121.846C65.9596 121.346 66.1055 120.856 66.2617 120.367L67.1159 117.346L67.9492 113.908C68.0586 113.283 67.9596 112.799 67.6576 112.45C67.3086 112.106 66.9909 111.898 66.6992 111.825C66.2826 111.731 65.8659 111.742 65.4492 111.867C65.0013 112.023 64.7044 112.388 64.5534 112.971ZM66.7617 124.7C67.2721 125.283 67.7669 125.815 68.2409 126.283C68.4909 126.549 68.7201 126.799 68.9284 127.033C69.1471 127.273 69.3659 127.507 69.5742 127.742C69.7669 127.981 69.9753 128.216 70.1992 128.45C70.418 128.674 70.6367 128.903 70.8451 129.138C71.0638 129.361 71.2878 129.591 71.5117 129.825C71.7305 130.049 71.9544 130.278 72.1784 130.513C72.5534 130.986 72.9753 131.221 73.4492 131.221C73.9076 131.263 74.293 131.127 74.6159 130.804C75.043 130.429 75.2617 130.023 75.2617 129.575C75.2461 129.158 75.0846 128.757 74.7826 128.367C74.3086 127.856 73.8451 127.356 73.3867 126.867C72.9284 126.367 72.4909 125.882 72.0742 125.408L69.3451 122.513C68.9544 122.153 68.5169 121.971 68.0326 121.971C67.5326 122.028 67.1367 122.2 66.8451 122.492C66.6055 122.731 66.4596 123.044 66.4076 123.429C66.3346 123.846 66.4544 124.273 66.7617 124.7Z" fill="white"/>
<path d="M103.355 112.033C103.323 111.731 103.256 111.46 103.146 111.221C103.089 111.111 103.027 111.012 102.959 110.929C102.886 110.846 102.813 110.757 102.73 110.658C102.521 110.507 102.339 110.408 102.188 110.367C101.99 110.314 101.797 110.283 101.605 110.283C100.948 110.231 100.49 110.367 100.23 110.7C99.9068 111.049 99.7714 111.549 99.8131 112.2C99.8131 112.398 99.8131 112.611 99.8131 112.846C99.8235 113.085 99.8443 113.356 99.8756 113.658C99.8756 114.257 99.9068 114.939 99.9797 115.7H97.7714C97.3964 115.715 97.0214 115.721 96.6464 115.721C96.2714 115.721 95.8964 115.721 95.5214 115.721C95.4901 115.471 95.4641 115.2 95.4381 114.908C95.4224 114.617 95.4068 114.304 95.3964 113.971C95.3235 113.346 95.2558 112.554 95.1881 111.596C95.1308 110.929 94.9276 110.502 94.5839 110.304C94.386 110.195 94.1985 110.127 94.0214 110.096C93.8547 110.07 93.6776 110.054 93.5006 110.054C93.4172 110.054 93.3339 110.064 93.2506 110.075C93.1776 110.075 93.0891 110.09 92.9797 110.117C92.7714 110.174 92.5735 110.273 92.3964 110.408C92.2401 110.523 92.1047 110.695 91.9797 110.929C91.8547 111.21 91.7974 111.507 91.8131 111.825C91.8131 112.215 91.8235 112.611 91.8547 113.012C91.8964 113.403 91.9276 113.814 91.9589 114.242C91.9693 114.674 91.9901 115.106 92.0214 115.533C92.0631 115.95 92.0891 116.377 92.1047 116.804C92.1308 117.236 92.1516 117.669 92.1672 118.096C92.1933 118.512 92.2193 118.919 92.2506 119.304C92.261 119.721 92.2766 120.117 92.2922 120.492C92.3026 120.856 92.3131 121.195 92.3131 121.512C92.3131 122.471 92.5474 123.189 93.0214 123.658C93.4901 124.132 94.2089 124.382 95.1672 124.408C95.6256 124.424 96.0735 124.439 96.5214 124.45C96.9641 124.465 97.386 124.46 97.7922 124.429C98.2089 124.429 98.6256 124.429 99.0422 124.429C99.4693 124.419 99.9068 124.398 100.355 124.367C100.589 124.367 100.818 124.356 101.042 124.325C101.261 124.299 101.469 124.273 101.667 124.242C102.027 124.174 102.339 124.044 102.605 123.846C102.865 123.653 103.063 123.377 103.188 123.012C103.256 122.835 103.313 122.627 103.355 122.387C103.396 122.153 103.422 121.877 103.438 121.554C103.49 120.986 103.521 120.465 103.521 119.992C103.532 119.507 103.553 119.085 103.584 118.721V116.7C103.553 116.398 103.532 116.075 103.521 115.742C103.521 115.408 103.521 115.07 103.521 114.721C103.49 114.377 103.464 113.981 103.438 113.533C103.422 113.075 103.396 112.575 103.355 112.033ZM108.188 109.658C108.188 110.856 108.219 112.002 108.292 113.096C108.303 113.679 108.334 114.257 108.376 114.825C108.428 115.382 108.485 115.945 108.542 116.512C108.584 117.096 108.636 117.679 108.709 118.262C108.777 118.835 108.855 119.408 108.938 119.992C109.006 120.59 109.089 121.195 109.188 121.804C109.282 122.419 109.376 123.033 109.459 123.658C109.501 123.939 109.584 124.153 109.709 124.304C109.844 124.502 110.001 124.632 110.167 124.7C110.318 124.814 110.49 124.867 110.688 124.867C110.771 124.882 110.844 124.887 110.917 124.887C111.001 124.887 111.084 124.887 111.167 124.887C111.277 124.887 111.443 124.856 111.667 124.783C111.834 124.773 112.027 124.689 112.251 124.533C112.443 124.408 112.615 124.221 112.771 123.971C112.881 123.804 112.938 123.512 112.938 123.096C112.839 122.471 112.756 121.84 112.688 121.2C112.631 120.564 112.568 119.929 112.501 119.304C112.417 118.679 112.339 118.054 112.271 117.429C112.214 116.794 112.152 116.158 112.084 115.533C112.667 115.606 113.24 115.674 113.813 115.742C114.396 115.799 114.959 115.867 115.501 115.95C116.053 116.049 116.61 116.132 117.167 116.2C117.719 116.257 118.277 116.299 118.834 116.325C119.094 116.367 119.339 116.32 119.563 116.179C119.73 116.127 119.902 116.007 120.084 115.825C120.209 115.7 120.323 115.528 120.438 115.304C120.48 115.179 120.521 115.007 120.563 114.783C120.563 114.674 120.563 114.57 120.563 114.471C120.563 114.377 120.547 114.278 120.521 114.179C120.506 114.07 120.48 113.965 120.438 113.867C120.396 113.773 120.355 113.679 120.313 113.596C120.157 113.403 119.99 113.252 119.813 113.137C119.605 113.002 119.344 112.929 119.042 112.929C118.386 112.887 117.756 112.835 117.146 112.762C116.547 112.679 115.959 112.596 115.376 112.512C114.178 112.361 112.985 112.231 111.792 112.117C111.777 111.908 111.761 111.7 111.751 111.492C111.735 111.273 111.73 111.049 111.73 110.825C111.698 110.632 111.688 110.429 111.688 110.221C111.688 110.002 111.688 109.778 111.688 109.554C111.688 109.32 111.636 109.096 111.542 108.887C111.402 108.71 111.251 108.554 111.084 108.429C110.86 108.278 110.672 108.179 110.521 108.137C110.323 108.07 110.146 108.033 109.98 108.033C109.589 108.033 109.198 108.169 108.813 108.429C108.396 108.679 108.188 109.09 108.188 109.658ZM109.167 126.908C109.011 126.648 108.818 126.419 108.584 126.221C108.318 126.07 107.917 126.007 107.376 126.033C106.626 126.09 105.855 126.273 105.063 126.575C104.672 126.731 104.313 126.908 103.98 127.117C103.646 127.325 103.323 127.554 103.021 127.804C102.396 128.377 101.907 129.007 101.563 129.7C101.172 130.439 100.98 131.257 100.98 132.158C100.98 133.309 101.334 134.294 102.042 135.117C102.719 135.893 103.756 136.351 105.146 136.492C105.532 136.502 105.922 136.492 106.313 136.45C106.698 136.408 107.089 136.346 107.48 136.262C108.188 136.038 108.865 135.689 109.521 135.221C109.823 134.981 110.089 134.721 110.313 134.429C110.547 134.137 110.761 133.825 110.959 133.492C111.126 133.143 111.251 132.778 111.334 132.387C111.428 132.002 111.48 131.59 111.48 131.158C111.48 130.398 111.277 129.648 110.876 128.908C110.485 128.2 109.943 127.653 109.251 127.262C109.251 127.153 109.219 127.033 109.167 126.908ZM107.896 131.096C107.865 131.653 107.688 132.137 107.355 132.554C107.006 132.971 106.464 133.179 105.73 133.179C105.355 133.179 105.047 133.08 104.813 132.887C104.547 132.71 104.417 132.439 104.417 132.075C104.417 131.398 104.657 130.835 105.146 130.387C105.589 129.945 106.136 129.617 106.792 129.408C107.219 129.648 107.527 129.924 107.709 130.242C107.834 130.575 107.896 130.861 107.896 131.096ZM100.042 121.158H96.9172C96.7506 121.158 96.5683 121.158 96.3756 121.158C96.1933 121.158 96.0058 121.148 95.8131 121.117C95.7974 120.731 95.7818 120.361 95.7714 120.012C95.7558 119.669 95.7349 119.346 95.7089 119.054C96.0839 119.054 96.4589 119.049 96.8339 119.033C97.2089 119.023 97.5683 119.012 97.9172 119.012C98.2922 119.012 98.6516 119.012 99.0006 119.012C99.3599 119.012 99.7141 119.002 100.063 118.971V120.054C100.063 120.252 100.053 120.439 100.042 120.617C100.042 120.799 100.042 120.981 100.042 121.158Z" fill="white"/>
<path d="M126.698 133.034C126.625 133.492 126.594 134.034 126.594 134.659C126.562 135.242 126.599 135.804 126.698 136.346C126.75 136.846 126.927 137.325 127.219 137.784C127.469 138.169 127.864 138.429 128.406 138.554C128.599 138.58 128.828 138.617 129.094 138.659H130.177C130.411 138.659 130.682 138.648 130.989 138.638C131.307 138.638 131.677 138.638 132.094 138.638C132.479 138.606 132.948 138.586 133.489 138.575C134.031 138.56 134.635 138.554 135.302 138.554C135.953 138.539 136.687 138.534 137.51 138.534C138.328 138.534 139.224 138.534 140.198 138.534C141.156 138.502 142.219 138.492 143.385 138.492C144.552 138.492 145.828 138.492 147.219 138.492C147.802 138.492 148.25 138.351 148.573 138.075C148.833 137.752 149 137.419 149.073 137.075C149.073 136.961 149.073 136.851 149.073 136.742C149.073 136.627 149.057 136.534 149.031 136.45C149.015 136.336 148.989 136.231 148.948 136.138C148.906 136.039 148.849 135.95 148.781 135.867C148.64 135.669 148.453 135.518 148.219 135.409C148.01 135.294 147.729 135.242 147.385 135.242C144.453 135.31 141.614 135.31 138.864 135.242C137.489 135.2 136.099 135.185 134.698 135.2C133.292 135.226 131.89 135.289 130.489 135.388C130.448 135.054 130.427 134.7 130.427 134.325C130.427 133.95 130.437 133.554 130.469 133.138C131.552 133.138 132.614 133.143 133.656 133.159C134.708 133.169 135.765 133.185 136.823 133.2C137.864 133.2 138.906 133.205 139.948 133.221C141 133.247 142.062 133.294 143.135 133.367C143.411 133.367 143.646 133.325 143.844 133.242C143.953 133.169 144.057 133.101 144.156 133.034C144.25 132.95 144.344 132.867 144.427 132.784C144.552 132.606 144.682 132.409 144.823 132.2C144.864 132.091 144.89 131.992 144.906 131.909C144.932 131.825 144.953 131.737 144.969 131.638C144.995 131.429 145.021 131.216 145.052 130.992C145.094 130.757 145.14 130.523 145.198 130.284C145.239 130.049 145.281 129.815 145.323 129.575C145.375 129.325 145.411 129.075 145.427 128.825C145.495 128.367 145.531 127.888 145.531 127.388C145.489 126.888 145.375 126.445 145.198 126.054C145.042 125.737 144.823 125.481 144.531 125.284C144.375 125.2 144.203 125.127 144.01 125.054C143.828 124.987 143.656 124.924 143.489 124.867L142.344 124.659C142.146 124.659 141.958 124.659 141.781 124.659C141.614 124.648 141.469 124.627 141.344 124.596C140.729 124.554 140.114 124.513 139.489 124.471C138.875 124.429 138.26 124.398 137.635 124.367C137.01 124.356 136.385 124.341 135.76 124.325C135.146 124.315 134.531 124.304 133.906 124.304C133.281 124.304 132.656 124.315 132.031 124.325C131.417 124.341 130.823 124.346 130.239 124.346C129.625 124.362 129.031 124.377 128.448 124.388C127.875 124.403 127.312 124.409 126.76 124.409C126.036 124.409 125.552 124.57 125.302 124.888C124.969 125.263 124.823 125.669 124.864 126.096C124.864 126.461 125.01 126.815 125.302 127.159C125.552 127.507 125.995 127.674 126.635 127.659C127.187 127.659 127.729 127.653 128.26 127.638C128.802 127.627 129.312 127.612 129.802 127.596H132.739C133.182 127.612 133.64 127.627 134.114 127.638C134.599 127.653 135.078 127.659 135.552 127.659C136.469 127.716 137.453 127.742 138.51 127.742C138.844 127.773 139.156 127.794 139.448 127.804C139.75 127.804 140.042 127.804 140.323 127.804C140.583 127.836 140.844 127.867 141.094 127.909C141.344 127.95 141.578 127.992 141.802 128.034C141.771 128.174 141.75 128.325 141.739 128.492C141.739 128.648 141.739 128.815 141.739 128.992C141.682 129.424 141.646 129.763 141.635 130.013C140.37 129.971 139.114 129.945 137.864 129.929C136.625 129.903 135.39 129.888 134.156 129.888C132.906 129.888 131.667 129.882 130.448 129.867C129.239 129.841 128.052 129.804 126.885 129.763C126.562 129.763 126.307 129.799 126.114 129.867C125.823 129.966 125.625 130.07 125.531 130.179C125.333 130.336 125.203 130.502 125.135 130.679C125.021 130.888 124.969 131.07 124.969 131.221C124.896 131.653 125.015 132.054 125.323 132.429C125.583 132.794 126.042 132.992 126.698 133.034ZM122.739 121.992C123.708 122.065 124.833 122.096 126.114 122.096C127.349 122.169 128.614 122.2 129.906 122.2C130.531 122.216 131.161 122.231 131.802 122.242C132.437 122.257 133.062 122.263 133.677 122.263C134.885 122.336 135.974 122.367 136.948 122.367C137.474 122.382 137.875 122.211 138.156 121.846C138.281 121.669 138.375 121.492 138.448 121.325C138.531 121.148 138.583 120.981 138.614 120.825C138.625 120.481 138.536 120.106 138.344 119.7C138.094 119.356 137.661 119.169 137.052 119.138C136.896 119.138 136.703 119.138 136.469 119.138C136.245 119.138 135.989 119.132 135.698 119.117C135.364 119.117 135.015 119.117 134.656 119.117C134.307 119.117 133.927 119.106 133.51 119.075C133.552 118.565 133.594 118.07 133.635 117.596C133.677 117.112 133.708 116.653 133.739 116.221C133.765 115.794 133.781 115.424 133.781 115.117C133.781 114.815 133.781 114.565 133.781 114.367C133.708 113.716 133.469 113.252 133.052 112.971C132.604 112.711 132.12 112.612 131.594 112.679C131.187 112.752 130.854 112.903 130.594 113.138C130.26 113.419 130.094 113.825 130.094 114.367C130.094 114.398 130.083 114.445 130.073 114.513C130.073 114.586 130.073 114.69 130.073 114.825C130.042 114.95 130.021 115.106 130.01 115.284C130.01 115.45 130.01 115.632 130.01 115.825C129.937 116.284 129.906 116.773 129.906 117.284C129.875 117.575 129.849 117.862 129.823 118.138C129.807 118.419 129.792 118.711 129.781 119.013C129.625 119.013 129.474 119.007 129.323 118.992C129.167 118.981 129.031 118.971 128.906 118.971C128.75 118.971 128.599 118.971 128.448 118.971C128.292 118.971 128.156 118.966 128.031 118.95C128 118.674 127.969 118.403 127.927 118.138C127.896 117.862 127.875 117.591 127.864 117.325C127.833 117.091 127.807 116.862 127.781 116.638C127.765 116.403 127.75 116.174 127.739 115.95C127.667 115.565 127.635 115.242 127.635 114.992C127.604 114.856 127.583 114.752 127.573 114.679C127.573 114.596 127.573 114.549 127.573 114.534C127.5 113.909 127.239 113.45 126.781 113.159C126.333 112.924 125.844 112.841 125.302 112.909C124.885 113.023 124.542 113.2 124.281 113.45C124 113.742 123.864 114.169 123.864 114.721C123.864 114.752 123.87 114.804 123.885 114.888C123.896 114.971 123.911 115.07 123.927 115.179C123.927 115.419 123.958 115.721 124.031 116.096C124.031 116.294 124.042 116.502 124.073 116.721C124.114 116.929 124.14 117.153 124.156 117.388C124.182 117.627 124.203 117.867 124.219 118.117C124.245 118.367 124.265 118.627 124.281 118.888C124.125 118.888 123.989 118.882 123.864 118.867C123.739 118.856 123.62 118.846 123.51 118.846C123.385 118.846 123.271 118.846 123.177 118.846C123.078 118.846 122.995 118.841 122.927 118.825C122.344 118.757 121.885 118.877 121.552 119.179C121.187 119.502 121.01 119.836 121.01 120.179C120.979 120.57 121.114 120.961 121.406 121.346C121.656 121.778 122.099 121.992 122.739 121.992ZM139.26 109.325C139.26 110.367 139.292 111.346 139.364 112.263C139.364 112.737 139.375 113.216 139.406 113.7C139.432 114.174 139.474 114.648 139.531 115.117C139.573 115.591 139.614 116.075 139.656 116.575C139.708 117.075 139.771 117.575 139.844 118.075C139.911 118.591 139.989 119.132 140.073 119.7C140.156 120.257 140.239 120.825 140.323 121.409C140.375 121.7 140.469 121.919 140.594 122.054C140.719 122.263 140.87 122.398 141.052 122.45C141.203 122.565 141.375 122.617 141.573 122.617C141.656 122.648 141.729 122.659 141.802 122.659C141.885 122.659 141.969 122.659 142.052 122.659C142.161 122.659 142.328 122.627 142.552 122.554C142.719 122.528 142.911 122.44 143.135 122.284C143.328 122.159 143.5 121.981 143.656 121.742C143.75 121.565 143.802 121.273 143.802 120.867C143.745 120.409 143.687 119.945 143.635 119.471C143.578 118.987 143.531 118.507 143.489 118.034C143.417 117.575 143.354 117.112 143.302 116.638C143.245 116.169 143.198 115.695 143.156 115.221C143.739 115.278 144.312 115.341 144.885 115.409C145.469 115.481 146.031 115.554 146.573 115.638C147.125 115.721 147.682 115.799 148.239 115.867C148.792 115.924 149.349 115.966 149.906 115.992C150.167 116.034 150.411 115.992 150.635 115.867C150.802 115.799 150.974 115.679 151.156 115.513C151.281 115.377 151.396 115.2 151.51 114.992C151.552 114.856 151.594 114.679 151.635 114.471C151.635 114.362 151.635 114.257 151.635 114.159C151.635 114.065 151.62 113.961 151.594 113.846C151.578 113.737 151.552 113.632 151.51 113.534C151.469 113.44 151.427 113.346 151.385 113.263C151.229 113.07 151.062 112.919 150.885 112.804C150.677 112.679 150.417 112.617 150.114 112.617C149.458 112.575 148.828 112.523 148.219 112.45C147.62 112.367 147.031 112.284 146.448 112.2C145.25 112.049 144.057 111.919 142.864 111.804C142.792 110.888 142.76 110.034 142.76 109.242C142.76 109.007 142.708 108.778 142.614 108.554C142.474 108.377 142.323 108.221 142.156 108.096C141.932 107.945 141.745 107.846 141.594 107.804C141.396 107.737 141.219 107.7 141.052 107.7C140.828 107.7 140.62 107.737 140.427 107.804C140.219 107.877 140.021 107.971 139.844 108.096C139.677 108.211 139.536 108.377 139.427 108.596C139.354 108.695 139.307 108.815 139.281 108.95C139.265 109.075 139.26 109.2 139.26 109.325ZM123.052 111.742L129.094 111.929C130.062 111.961 131.042 111.987 132.031 112.013C133.015 112.044 134.01 112.07 135.01 112.096C135.521 112.112 135.927 111.945 136.219 111.596C136.344 111.429 136.437 111.263 136.51 111.096C136.594 110.919 136.64 110.752 136.656 110.596C136.656 110.487 136.656 110.382 136.656 110.284C136.656 110.19 136.646 110.091 136.635 109.992C136.604 109.882 136.573 109.773 136.531 109.659C136.489 109.549 136.448 109.45 136.406 109.367C136.25 109.174 136.083 109.023 135.906 108.909C135.698 108.784 135.427 108.721 135.094 108.721C134.953 108.721 134.76 108.721 134.51 108.721C134.271 108.721 134 108.711 133.698 108.679C133.375 108.679 133.042 108.679 132.698 108.679C132.349 108.669 131.995 108.648 131.635 108.617C131.245 108.617 130.849 108.617 130.448 108.617C130.042 108.606 129.635 108.586 129.219 108.554C128.812 108.554 128.406 108.549 127.989 108.534C127.573 108.523 127.182 108.507 126.823 108.492C126.432 108.492 126.057 108.492 125.698 108.492C125.333 108.492 125.01 108.481 124.719 108.45C124.385 108.45 124.099 108.45 123.864 108.45C123.625 108.44 123.417 108.419 123.239 108.388C122.656 108.32 122.203 108.471 121.885 108.846C121.51 109.263 121.323 109.632 121.323 109.95C121.307 110.341 121.437 110.731 121.719 111.117C121.995 111.534 122.437 111.742 123.052 111.742Z" fill="white"/>
<path d="M165.499 112.033C165.468 111.731 165.4 111.46 165.291 111.221C165.234 111.111 165.171 111.012 165.103 110.929C165.031 110.846 164.958 110.757 164.874 110.658C164.666 110.507 164.484 110.408 164.333 110.367C164.135 110.314 163.942 110.283 163.749 110.283C163.093 110.231 162.635 110.367 162.374 110.7C162.051 111.049 161.916 111.549 161.958 112.2C161.958 112.398 161.958 112.611 161.958 112.846C161.968 113.085 161.989 113.356 162.02 113.658C162.02 114.257 162.051 114.939 162.124 115.7H159.916C159.541 115.715 159.166 115.721 158.791 115.721C158.416 115.721 158.041 115.721 157.666 115.721C157.635 115.471 157.609 115.2 157.583 114.908C157.567 114.617 157.551 114.304 157.541 113.971C157.468 113.346 157.4 112.554 157.333 111.596C157.275 110.929 157.072 110.502 156.728 110.304C156.531 110.195 156.343 110.127 156.166 110.096C155.999 110.07 155.822 110.054 155.645 110.054C155.562 110.054 155.478 110.064 155.395 110.075C155.322 110.075 155.234 110.09 155.124 110.117C154.916 110.174 154.718 110.273 154.541 110.408C154.385 110.523 154.249 110.695 154.124 110.929C153.999 111.21 153.942 111.507 153.958 111.825C153.958 112.215 153.968 112.611 153.999 113.012C154.041 113.403 154.072 113.814 154.103 114.242C154.114 114.674 154.135 115.106 154.166 115.533C154.208 115.95 154.234 116.377 154.249 116.804C154.275 117.236 154.296 117.669 154.312 118.096C154.338 118.512 154.364 118.919 154.395 119.304C154.406 119.721 154.421 120.117 154.437 120.492C154.447 120.856 154.458 121.195 154.458 121.512C154.458 122.471 154.692 123.189 155.166 123.658C155.635 124.132 156.353 124.382 157.312 124.408C157.77 124.424 158.218 124.439 158.666 124.45C159.109 124.465 159.531 124.46 159.937 124.429C160.353 124.429 160.77 124.429 161.187 124.429C161.614 124.419 162.051 124.398 162.499 124.367C162.734 124.367 162.963 124.356 163.187 124.325C163.406 124.299 163.614 124.273 163.812 124.242C164.171 124.174 164.484 124.044 164.749 123.846C165.01 123.653 165.208 123.377 165.333 123.012C165.4 122.835 165.458 122.627 165.499 122.387C165.541 122.153 165.567 121.877 165.583 121.554C165.635 120.986 165.666 120.465 165.666 119.992C165.676 119.507 165.697 119.085 165.728 118.721V116.7C165.697 116.398 165.676 116.075 165.666 115.742C165.666 115.408 165.666 115.07 165.666 114.721C165.635 114.377 165.609 113.981 165.583 113.533C165.567 113.075 165.541 112.575 165.499 112.033ZM170.333 109.658C170.333 110.856 170.364 112.002 170.437 113.096C170.447 113.679 170.478 114.257 170.52 114.825C170.572 115.382 170.629 115.945 170.687 116.512C170.728 117.096 170.781 117.679 170.853 118.262C170.921 118.835 170.999 119.408 171.083 119.992C171.15 120.59 171.234 121.195 171.333 121.804C171.426 122.419 171.52 123.033 171.603 123.658C171.645 123.939 171.728 124.153 171.853 124.304C171.989 124.502 172.145 124.632 172.312 124.7C172.463 124.814 172.635 124.867 172.833 124.867C172.916 124.882 172.989 124.887 173.062 124.887C173.145 124.887 173.228 124.887 173.312 124.887C173.421 124.887 173.588 124.856 173.812 124.783C173.978 124.773 174.171 124.689 174.395 124.533C174.588 124.408 174.76 124.221 174.916 123.971C175.025 123.804 175.083 123.512 175.083 123.096C174.984 122.471 174.9 121.84 174.833 121.2C174.775 120.564 174.713 119.929 174.645 119.304C174.562 118.679 174.484 118.054 174.416 117.429C174.359 116.794 174.296 116.158 174.228 115.533C174.812 115.606 175.385 115.674 175.958 115.742C176.541 115.799 177.103 115.867 177.645 115.95C178.197 116.049 178.754 116.132 179.312 116.2C179.864 116.257 180.421 116.299 180.978 116.325C181.239 116.367 181.484 116.32 181.708 116.179C181.874 116.127 182.046 116.007 182.228 115.825C182.353 115.7 182.468 115.528 182.583 115.304C182.624 115.179 182.666 115.007 182.708 114.783C182.708 114.674 182.708 114.57 182.708 114.471C182.708 114.377 182.692 114.278 182.666 114.179C182.65 114.07 182.624 113.965 182.583 113.867C182.541 113.773 182.499 113.679 182.458 113.596C182.301 113.403 182.135 113.252 181.958 113.137C181.749 113.002 181.489 112.929 181.187 112.929C180.531 112.887 179.9 112.835 179.291 112.762C178.692 112.679 178.103 112.596 177.52 112.512C176.322 112.361 175.129 112.231 173.937 112.117C173.921 111.908 173.906 111.7 173.895 111.492C173.879 111.273 173.874 111.049 173.874 110.825C173.843 110.632 173.833 110.429 173.833 110.221C173.833 110.002 173.833 109.778 173.833 109.554C173.833 109.32 173.781 109.096 173.687 108.887C173.546 108.71 173.395 108.554 173.228 108.429C173.004 108.278 172.817 108.179 172.666 108.137C172.468 108.07 172.291 108.033 172.124 108.033C171.734 108.033 171.343 108.169 170.958 108.429C170.541 108.679 170.333 109.09 170.333 109.658ZM171.312 126.908C171.156 126.648 170.963 126.419 170.728 126.221C170.463 126.07 170.062 126.007 169.52 126.033C168.77 126.09 167.999 126.273 167.208 126.575C166.817 126.731 166.458 126.908 166.124 127.117C165.791 127.325 165.468 127.554 165.166 127.804C164.541 128.377 164.051 129.007 163.708 129.7C163.317 130.439 163.124 131.257 163.124 132.158C163.124 133.309 163.478 134.294 164.187 135.117C164.864 135.893 165.9 136.351 167.291 136.492C167.676 136.502 168.067 136.492 168.458 136.45C168.843 136.408 169.234 136.346 169.624 136.262C170.333 136.038 171.01 135.689 171.666 135.221C171.968 134.981 172.234 134.721 172.458 134.429C172.692 134.137 172.906 133.825 173.103 133.492C173.27 133.143 173.395 132.778 173.478 132.387C173.572 132.002 173.624 131.59 173.624 131.158C173.624 130.398 173.421 129.648 173.02 128.908C172.629 128.2 172.088 127.653 171.395 127.262C171.395 127.153 171.364 127.033 171.312 126.908ZM170.041 131.096C170.01 131.653 169.833 132.137 169.499 132.554C169.15 132.971 168.609 133.179 167.874 133.179C167.499 133.179 167.192 133.08 166.958 132.887C166.692 132.71 166.562 132.439 166.562 132.075C166.562 131.398 166.801 130.835 167.291 130.387C167.734 129.945 168.281 129.617 168.937 129.408C169.364 129.648 169.671 129.924 169.853 130.242C169.978 130.575 170.041 130.861 170.041 131.096ZM162.187 121.158H159.062C158.895 121.158 158.713 121.158 158.52 121.158C158.338 121.158 158.15 121.148 157.958 121.117C157.942 120.731 157.926 120.361 157.916 120.012C157.9 119.669 157.879 119.346 157.853 119.054C158.228 119.054 158.603 119.049 158.978 119.033C159.353 119.023 159.713 119.012 160.062 119.012C160.437 119.012 160.796 119.012 161.145 119.012C161.504 119.012 161.859 119.002 162.208 118.971V120.054C162.208 120.252 162.197 120.439 162.187 120.617C162.187 120.799 162.187 120.981 162.187 121.158Z" fill="white"/>
</svg>
