<svg width="15" height="15" viewBox="0 0 15 15" fill="none" xmlns="http://www.w3.org/2000/svg">
<path d="M15 7.5C15 8.328 14.328 9 13.5 9H1.5C0.672 9 0 8.328 0 7.5C0 6.672 0.672 6 1.5 6H13.5C14.328 6 15 6.672 15 7.5Z" fill="black"/>
<path d="M15 1.5C15 2.328 14.328 3 13.5 3H1.5C0.672 3 0 2.328 0 1.5C0 0.672 0.672 0 1.5 0H13.5C14.328 0 15 0.672 15 1.5Z" fill="black"/>
<path d="M15 13.5C15 14.328 14.328 15 13.5 15H1.5C0.672 15 0 14.328 0 13.5C0 12.672 0.672 12 1.5 12H13.5C14.328 12 15 12.672 15 13.5Z" fill="black"/>
</svg>
