<svg width="1200" height="630" viewBox="0 0 1200 630" fill="none" xmlns="http://www.w3.org/2000/svg">
<rect width="1200" height="630" fill="#0D0E0F"/>
<mask id="mask0_2929_6594" style="mask-type:luminance" maskUnits="userSpaceOnUse" x="767" y="166" width="105" height="99">
<path d="M767.47 166.374H871.489V264.422H767.47V166.374Z" fill="white"/>
</mask>
<g mask="url(#mask0_2929_6594)">
<mask id="mask1_2929_6594" style="mask-type:luminance" maskUnits="userSpaceOnUse" x="141" y="164" width="758" height="278">
<path d="M141.769 300.999L868.514 164.006L898.416 304.951L171.67 441.945L141.769 300.999Z" fill="white"/>
</mask>
<g mask="url(#mask1_2929_6594)">
<mask id="mask2_2929_6594" style="mask-type:luminance" maskUnits="userSpaceOnUse" x="141" y="164" width="758" height="278">
<path d="M141.768 301L868.513 164.006L898.415 304.952L171.669 441.945L141.768 301Z" fill="white"/>
</mask>
<g mask="url(#mask2_2929_6594)">
<path d="M822.58 260.645C821.084 260.923 819.477 260.749 818.018 260.07C814.528 258.416 813.105 254.412 814.86 251.105L848.474 187.543L776.684 206.467C772.972 207.512 769.038 205.388 767.967 201.836C766.914 198.285 769.13 194.594 772.879 193.602L860.036 170.639C862.529 169.977 865.613 170.778 867.405 172.815C869.178 174.852 869.529 177.69 868.273 180.04L827.511 257.076C826.514 258.991 824.63 260.244 822.58 260.645Z" fill="white"/>
</g>
</g>
</g>
<mask id="mask3_2929_6594" style="mask-type:luminance" maskUnits="userSpaceOnUse" x="167" y="170" width="696" height="269">
<path d="M167 170.83H862.034V438.236H167V170.83Z" fill="white"/>
</mask>
<g mask="url(#mask3_2929_6594)">
<mask id="mask4_2929_6594" style="mask-type:luminance" maskUnits="userSpaceOnUse" x="141" y="164" width="758" height="278">
<path d="M141.77 300.999L868.515 164.006L898.417 304.951L171.671 441.944L141.77 300.999Z" fill="white"/>
</mask>
<g mask="url(#mask4_2929_6594)">
<mask id="mask5_2929_6594" style="mask-type:luminance" maskUnits="userSpaceOnUse" x="141" y="164" width="758" height="278">
<path d="M141.769 300.999L868.514 164.006L898.416 304.951L171.67 441.945L141.769 300.999Z" fill="white"/>
</mask>
<g mask="url(#mask5_2929_6594)">
<path d="M587.893 309.791C576.368 319.418 567.928 329.272 566.598 337.332C565.951 341.197 566.986 344.418 569.848 347.465C572.766 350.598 575.075 351.834 577.181 351.225C582.98 349.293 589.407 335.487 589.814 326.991C590.109 320.759 589.463 315.031 587.893 309.791ZM579.508 364.421C574.65 365.344 567.096 364.735 559.21 356.291C553.595 350.302 551.305 343.025 552.598 335.278C554.814 321.821 567.835 308.189 581.669 297.169C578.141 292.277 573.468 287.907 567.614 284.043C517.968 251.244 398.731 265.937 359.539 281.153C297.28 305.352 213.891 359.251 183.786 431.551C182.346 434.981 178.245 436.652 174.589 435.329C170.95 433.989 169.159 430.106 170.581 426.659C202.329 350.459 289.301 294.001 354.146 268.81C393.467 253.559 519.797 236.132 575.74 273.11C582.74 277.723 588.428 282.998 592.824 288.9C601.597 282.807 609.557 278.123 614.064 275.599C638.942 261.654 670.265 254.238 703.455 246.369C757.533 233.556 813.457 220.325 846.776 177.376C849.084 174.417 853.517 173.755 856.675 175.931C859.815 178.107 860.517 182.286 858.208 185.263C821.861 232.093 760.783 246.561 706.89 259.321C674.753 266.929 644.409 274.119 621.304 287.072C613.971 291.18 606.547 295.864 599.602 300.773C602.964 308.816 604.404 317.764 603.961 327.566C603.499 337.472 596.352 358.989 581.89 363.794C581.207 364.038 580.394 364.247 579.508 364.421Z" fill="white"/>
</g>
</g>
</g>
<path d="M970.725 104.396L928.8 96.4404L919.547 101.994L949.929 124.052C956.873 117.506 963.799 110.96 970.725 104.396Z" fill="white"/>
<mask id="mask6_2929_6594" style="mask-type:luminance" maskUnits="userSpaceOnUse" x="980" y="126" width="34" height="54">
<path d="M980.236 126.263H1013.33V179.935H980.236V126.263Z" fill="white"/>
</mask>
<g mask="url(#mask6_2929_6594)">
<path d="M981.584 149.469L1007.31 180.945L1013.2 172.223L1004.32 130.685C996.581 136.778 989.082 143.115 981.584 149.469Z" fill="white"/>
</g>
<mask id="mask7_2929_6594" style="mask-type:luminance" maskUnits="userSpaceOnUse" x="896" y="83" width="137" height="93">
<path d="M896.755 83H1032.25V175.286H896.755V83Z" fill="white"/>
</mask>
<g mask="url(#mask7_2929_6594)">
<path d="M1027.19 85.3852C1021.96 82.9827 1002.01 85.2111 995.418 89.8942C985.685 96.8405 926.251 154.5 926.251 154.5L903.811 158.452L896.885 167.452C896.885 167.452 908.336 169.437 919.916 171.544C925.29 172.536 934.451 169.907 934.451 169.907C961.416 164.092 1047.89 94.8907 1027.19 85.3852ZM1023.57 93.4283C1023.16 95.2562 1021.87 96.8405 1020.44 98.0939C1019.69 98.7555 1018.87 99.33 1018.01 99.8697C1017.58 100.148 1015.94 100.758 1015.75 101.141C1022.2 88.2229 1009.88 86.9694 1009.88 86.9694C1012.8 86.3427 1016.36 85.5245 1019.34 86.3775C1022.49 87.2828 1024.21 90.4513 1023.57 93.4283Z" fill="white"/>
</g>
<path d="M440.312 456.366C440.312 460.37 440.423 464.496 440.682 468.761C440.922 473.044 441.273 477.309 441.716 481.574C441.956 483.768 442.196 485.875 442.455 487.911C442.75 489.966 443.046 492.055 443.341 494.179C443.932 498.357 444.616 502.378 445.41 506.226C445.705 507.723 445.964 509.203 446.222 510.683C446.462 512.18 446.61 513.66 446.666 515.139C446.758 516.637 446.85 518.116 446.961 519.596C447.054 521.093 447.22 522.556 447.478 523.983C447.571 524.958 447.885 525.724 448.439 526.281C448.771 527.03 449.27 527.5 449.916 527.674C450.156 527.848 450.452 527.987 450.803 528.092C451.135 528.179 451.468 528.301 451.763 528.44C452.059 528.44 452.317 528.458 452.576 528.51C452.871 528.545 453.167 528.579 453.462 528.579C453.702 528.579 453.998 528.545 454.349 528.51C454.681 528.458 455.051 528.405 455.457 528.37C455.845 528.231 456.214 528.092 456.565 527.953C456.953 527.848 457.304 527.709 457.599 527.465C458.375 526.96 458.966 526.351 459.372 525.655C459.668 525.01 459.816 523.983 459.816 522.591C459.557 518.969 459.225 515.401 458.781 511.867C458.523 510.108 458.283 508.385 458.043 506.713C457.84 505.007 457.673 503.353 457.526 501.769C457.23 499.68 456.898 497.574 456.565 495.432C456.214 493.308 455.863 491.097 455.531 488.817C455.235 486.693 454.94 484.534 454.644 482.34C454.386 480.164 454.146 477.953 453.906 475.725C456.011 475.916 458.117 476.125 460.185 476.352C462.254 476.595 464.267 476.839 466.243 477.118C470.177 477.779 474.166 478.214 478.211 478.441C480.076 478.58 481.554 478.023 482.644 476.769C483.53 475.708 484.084 474.541 484.343 473.288C484.343 472.974 484.343 472.643 484.343 472.313C484.343 471.999 484.287 471.651 484.195 471.268C484.14 470.903 484.047 470.554 483.9 470.224C483.752 469.91 483.604 469.597 483.456 469.318C482.902 468.674 482.311 468.169 481.683 467.786C480.945 467.421 480.021 467.212 478.95 467.16C474.314 466.933 469.937 466.498 465.8 465.836C463.62 465.558 461.478 465.314 459.372 465.07C457.304 464.844 455.18 464.635 453.019 464.444C452.908 463.713 452.871 462.981 452.871 462.285C452.871 461.589 452.871 460.892 452.871 460.196C452.816 459.552 452.797 458.873 452.797 458.176C452.797 457.445 452.797 456.697 452.797 455.948C452.797 454.277 452.206 453.006 451.024 452.118C449.842 451.282 448.383 450.865 446.666 450.865C444.689 450.865 443.157 451.282 442.085 452.118C440.903 453.093 440.312 454.52 440.312 456.366ZM395.912 460.614C395.414 462.337 394.952 463.991 394.509 465.558C394.102 467.09 393.714 468.605 393.327 470.084C392.976 471.442 392.606 472.8 392.218 474.193C391.812 475.551 391.424 476.891 391.036 478.232L388.598 486.31L385.422 495.78C385.126 496.529 384.831 497.225 384.535 497.869C384.277 498.531 384.092 499.106 383.944 499.61C383.686 500.133 383.464 500.638 383.279 501.142C383.076 501.612 382.91 502.1 382.762 502.605C382.504 503.127 382.282 503.684 382.097 504.276C381.95 504.833 381.746 505.425 381.506 506.017C381.211 506.679 380.878 507.375 380.546 508.106C380.25 508.855 379.899 509.708 379.512 510.683C379.456 510.874 379.364 511.083 379.216 511.309C379.105 511.553 378.994 511.849 378.847 512.215C378.588 512.545 378.348 512.963 378.108 513.468C377.905 513.938 377.665 514.443 377.369 515C376.667 516.532 376.667 517.96 377.369 519.248C377.812 520.606 378.847 521.598 380.472 522.242C382.245 523.13 383.833 523.287 385.274 522.73C386.493 522.277 387.583 521.459 388.525 520.293C389.208 519.37 389.854 518.343 390.445 517.229C391.073 516.114 391.627 514.913 392.071 513.607C392.459 512.354 392.846 511.153 393.253 509.986C393.696 508.785 394.158 507.601 394.656 506.435C395.487 504.346 396.245 502.378 396.947 500.516C397.63 498.67 398.239 496.895 398.793 495.223C399.384 493.552 399.92 491.916 400.419 490.279C400.899 488.608 401.416 486.971 401.97 485.335L404.999 475.237L407.954 463.747C408.342 461.658 407.991 460.039 406.92 458.873C405.682 457.724 404.556 457.027 403.522 456.784C402.044 456.47 400.566 456.505 399.089 456.923C397.501 457.445 396.448 458.664 395.912 460.614ZM403.743 499.819C405.553 501.769 407.308 503.545 408.988 505.112C409.875 506 410.688 506.835 411.426 507.619C412.202 508.419 412.978 509.203 413.717 509.986C414.4 510.787 415.139 511.571 415.933 512.354C416.709 513.103 417.484 513.869 418.223 514.652C418.999 515.401 419.793 516.167 420.587 516.95C421.363 517.699 422.157 518.465 422.951 519.248C424.281 520.832 425.777 521.616 427.458 521.616C429.083 521.755 430.45 521.302 431.595 520.223C433.109 518.969 433.885 517.612 433.885 516.114C433.83 514.722 433.257 513.381 432.186 512.075C430.505 510.369 428.861 508.698 427.236 507.062C425.611 505.39 424.059 503.771 422.582 502.187L412.904 492.507C411.519 491.306 409.967 490.697 408.25 490.697C406.477 490.888 405.073 491.463 404.039 492.438C403.189 493.239 402.672 494.283 402.487 495.571C402.229 496.964 402.654 498.392 403.743 499.819Z" fill="white"/>
<path d="M533.507 457.48C533.396 456.47 533.156 455.565 532.768 454.764C532.565 454.398 532.343 454.067 532.103 453.789C531.845 453.51 531.586 453.214 531.291 452.884C530.552 452.379 529.906 452.048 529.37 451.909C528.668 451.735 527.985 451.63 527.301 451.63C524.974 451.456 523.349 451.909 522.426 453.023C521.28 454.189 520.8 455.86 520.948 458.037C520.948 458.698 520.948 459.412 520.948 460.195C520.985 460.996 521.059 461.902 521.17 462.911C521.17 464.913 521.28 467.194 521.539 469.736H513.708C512.378 469.788 511.048 469.805 509.719 469.805C508.389 469.805 507.059 469.805 505.729 469.805C505.619 468.97 505.526 468.064 505.434 467.089C505.378 466.115 505.323 465.07 505.286 463.956C505.027 461.867 504.787 459.22 504.547 456.017C504.344 453.789 503.624 452.361 502.405 451.7C501.703 451.334 501.038 451.108 500.41 451.003C499.819 450.916 499.191 450.864 498.563 450.864C498.268 450.864 497.972 450.899 497.677 450.934C497.418 450.934 497.104 450.986 496.716 451.073C495.978 451.264 495.276 451.595 494.648 452.048C494.094 452.431 493.614 453.005 493.17 453.789C492.727 454.729 492.524 455.721 492.579 456.783C492.579 458.089 492.616 459.412 492.727 460.752C492.875 462.058 492.986 463.434 493.096 464.861C493.133 466.306 493.207 467.751 493.318 469.179C493.466 470.571 493.558 471.999 493.614 473.426C493.706 474.871 493.78 476.316 493.835 477.744C493.927 479.137 494.02 480.495 494.131 481.783C494.168 483.176 494.223 484.499 494.278 485.752C494.315 486.971 494.352 488.102 494.352 489.164C494.352 492.368 495.183 494.77 496.864 496.337C498.526 497.921 501.075 498.757 504.473 498.844C506.099 498.896 507.687 498.948 509.275 498.983C510.845 499.035 512.341 499.018 513.782 498.914C515.259 498.914 516.737 498.914 518.215 498.914C519.729 498.879 521.28 498.809 522.869 498.705C523.7 498.705 524.513 498.67 525.307 498.565C526.082 498.478 526.821 498.391 527.523 498.287C528.797 498.061 529.906 497.625 530.847 496.964C531.771 496.32 532.473 495.397 532.916 494.178C533.156 493.586 533.359 492.89 533.507 492.089C533.655 491.306 533.747 490.383 533.803 489.304C533.987 487.406 534.098 485.665 534.098 484.081C534.135 482.462 534.209 481.052 534.32 479.833V473.078C534.209 472.069 534.135 470.989 534.098 469.875C534.098 468.761 534.098 467.629 534.098 466.463C533.987 465.314 533.895 463.991 533.803 462.493C533.747 460.961 533.655 459.29 533.507 457.48ZM550.646 449.541C550.646 453.545 550.757 457.375 551.016 461.031C551.053 462.981 551.164 464.913 551.311 466.811C551.496 468.674 551.699 470.554 551.902 472.452C552.05 474.401 552.235 476.351 552.493 478.301C552.733 480.216 553.011 482.131 553.306 484.081C553.546 486.083 553.842 488.102 554.193 490.139C554.525 492.194 554.857 494.248 555.153 496.337C555.301 497.277 555.596 497.991 556.039 498.496C556.52 499.157 557.074 499.593 557.665 499.819C558.2 500.202 558.81 500.376 559.512 500.376C559.807 500.428 560.066 500.446 560.324 500.446C560.62 500.446 560.915 500.446 561.211 500.446C561.599 500.446 562.19 500.341 562.984 500.097C563.575 500.063 564.258 499.784 565.052 499.262C565.736 498.844 566.345 498.217 566.899 497.382C567.287 496.824 567.49 495.85 567.49 494.457C567.139 492.368 566.844 490.261 566.604 488.12C566.401 485.996 566.179 483.872 565.939 481.783C565.643 479.694 565.366 477.605 565.126 475.516C564.923 473.392 564.702 471.268 564.461 469.179C566.53 469.422 568.562 469.649 570.593 469.875C572.662 470.066 574.656 470.293 576.577 470.571C578.535 470.902 580.511 471.181 582.487 471.407C584.445 471.598 586.421 471.738 588.398 471.825C589.321 471.964 590.189 471.807 590.983 471.337C591.574 471.163 592.184 470.763 592.83 470.153C593.273 469.736 593.68 469.161 594.086 468.413C594.234 467.995 594.382 467.42 594.529 466.672C594.529 466.306 594.529 465.958 594.529 465.627C594.529 465.314 594.474 464.983 594.382 464.652C594.326 464.287 594.234 463.938 594.086 463.608C593.938 463.294 593.791 462.981 593.643 462.702C593.089 462.058 592.498 461.553 591.87 461.17C591.131 460.718 590.208 460.474 589.136 460.474C586.809 460.335 584.574 460.161 582.414 459.917C580.29 459.638 578.203 459.36 576.134 459.081C571.886 458.576 567.657 458.141 563.427 457.758C563.372 457.062 563.316 456.365 563.279 455.669C563.224 454.938 563.206 454.189 563.206 453.441C563.095 452.796 563.058 452.118 563.058 451.421C563.058 450.69 563.058 449.941 563.058 449.193C563.058 448.409 562.873 447.661 562.541 446.964C562.042 446.372 561.506 445.85 560.915 445.432C560.121 444.927 559.456 444.597 558.921 444.457C558.219 444.231 557.591 444.109 557 444.109C555.615 444.109 554.229 444.562 552.863 445.432C551.385 446.268 550.646 447.643 550.646 449.541ZM554.119 507.2C553.565 506.33 552.881 505.564 552.05 504.902C551.108 504.397 549.686 504.189 547.765 504.276C545.106 504.467 542.372 505.076 539.565 506.086C538.18 506.608 536.905 507.2 535.723 507.897C534.541 508.593 533.396 509.359 532.325 510.195C530.109 512.11 528.373 514.216 527.154 516.532C525.768 519.004 525.085 521.737 525.085 524.749C525.085 528.596 526.341 531.887 528.853 534.637C531.254 537.231 534.929 538.763 539.86 539.233C541.227 539.268 542.612 539.233 543.998 539.094C545.364 538.955 546.749 538.746 548.135 538.467C550.646 537.719 553.047 536.552 555.375 534.986C556.446 534.185 557.388 533.314 558.182 532.339C559.013 531.364 559.77 530.32 560.472 529.206C561.063 528.039 561.506 526.821 561.802 525.515C562.134 524.227 562.319 522.851 562.319 521.406C562.319 518.865 561.599 516.358 560.177 513.886C558.791 511.518 556.871 509.69 554.414 508.384C554.414 508.019 554.303 507.618 554.119 507.2ZM549.612 521.197C549.501 523.06 548.873 524.679 547.691 526.072C546.454 527.465 544.533 528.161 541.929 528.161C540.599 528.161 539.51 527.83 538.678 527.186C537.736 526.594 537.275 525.689 537.275 524.47C537.275 522.207 538.124 520.327 539.86 518.83C541.43 517.35 543.37 516.253 545.697 515.557C547.211 516.358 548.301 517.28 548.947 518.342C549.391 519.456 549.612 520.414 549.612 521.197ZM521.761 487.981H510.679C510.088 487.981 509.442 487.981 508.758 487.981C508.112 487.981 507.447 487.946 506.764 487.841C506.708 486.553 506.653 485.317 506.616 484.151C506.56 483.002 506.487 481.922 506.394 480.947C507.724 480.947 509.054 480.93 510.384 480.878C511.713 480.843 512.988 480.808 514.225 480.808C515.555 480.808 516.829 480.808 518.067 480.808C519.341 480.808 520.597 480.773 521.834 480.669V484.29C521.834 484.951 521.798 485.578 521.761 486.17C521.761 486.779 521.761 487.389 521.761 487.981Z" fill="white"/>
<path d="M616.284 527.675C616.025 529.207 615.914 531.017 615.914 533.106C615.803 535.056 615.933 536.936 616.284 538.747C616.468 540.418 617.096 542.02 618.131 543.552C619.017 544.84 620.421 545.711 622.342 546.128C623.025 546.215 623.838 546.337 624.779 546.477H628.621C629.452 546.477 630.413 546.442 631.502 546.407C632.629 546.407 633.94 546.407 635.418 546.407C636.784 546.302 638.447 546.233 640.367 546.198C642.288 546.146 644.431 546.128 646.795 546.128C649.103 546.076 651.708 546.059 654.626 546.059C657.525 546.059 660.702 546.059 664.156 546.059C667.554 545.954 671.322 545.919 675.459 545.919C679.596 545.919 684.121 545.919 689.052 545.919C691.121 545.919 692.709 545.449 693.854 544.527C694.778 543.447 695.369 542.333 695.627 541.184C695.627 540.801 695.627 540.436 695.627 540.07C695.627 539.687 695.572 539.374 695.48 539.095C695.424 538.712 695.332 538.364 695.184 538.05C695.036 537.72 694.833 537.424 694.593 537.145C694.094 536.484 693.43 535.979 692.598 535.613C691.86 535.23 690.862 535.056 689.643 535.056C679.245 535.282 669.179 535.282 659.428 535.056C654.552 534.917 649.621 534.865 644.652 534.917C639.666 535.004 634.697 535.213 629.729 535.544C629.581 534.429 629.508 533.246 629.508 531.992C629.508 530.739 629.545 529.415 629.655 528.023C633.497 528.023 637.265 528.04 640.958 528.092C644.689 528.127 648.439 528.179 652.188 528.232C655.882 528.232 659.575 528.249 663.269 528.301C667 528.388 670.768 528.545 674.572 528.789C675.551 528.789 676.382 528.649 677.084 528.371C677.472 528.127 677.842 527.901 678.192 527.675C678.525 527.396 678.857 527.117 679.153 526.839C679.596 526.247 680.058 525.585 680.556 524.889C680.704 524.523 680.797 524.193 680.852 523.914C680.944 523.636 681.018 523.34 681.074 523.009C681.166 522.313 681.258 521.599 681.369 520.85C681.517 520.067 681.683 519.283 681.886 518.482C682.034 517.699 682.182 516.916 682.33 516.115C682.514 515.279 682.644 514.444 682.699 513.608C682.939 512.076 683.068 510.474 683.068 508.803C682.921 507.132 682.514 505.652 681.886 504.346C681.332 503.284 680.556 502.431 679.522 501.77C678.968 501.491 678.359 501.247 677.675 501.004C677.029 500.777 676.419 500.568 675.828 500.377L671.765 499.68C671.063 499.68 670.398 499.68 669.77 499.68C669.179 499.646 668.662 499.576 668.219 499.472C666.04 499.332 663.86 499.193 661.644 499.054C659.465 498.914 657.285 498.81 655.069 498.706C652.853 498.671 650.636 498.619 648.42 498.566C646.241 498.531 644.061 498.497 641.845 498.497C639.629 498.497 637.412 498.531 635.196 498.566C633.017 498.619 630.911 498.636 628.843 498.636C626.663 498.688 624.558 498.74 622.489 498.775C620.458 498.827 618.463 498.845 616.505 498.845C613.938 498.845 612.22 499.385 611.334 500.446C610.152 501.7 609.635 503.058 609.782 504.485C609.782 505.704 610.3 506.888 611.334 508.037C612.22 509.203 613.79 509.76 616.062 509.708C618.02 509.708 619.941 509.691 621.824 509.639C623.745 509.604 625.555 509.552 627.291 509.499H637.708C639.278 509.552 640.903 509.604 642.584 509.639C644.301 509.691 646.001 509.708 647.681 509.708C650.932 509.9 654.423 509.987 658.172 509.987C659.354 510.091 660.462 510.161 661.496 510.196C662.567 510.196 663.602 510.196 664.599 510.196C665.523 510.3 666.446 510.405 667.333 510.544C668.219 510.683 669.05 510.822 669.844 510.962C669.734 511.432 669.66 511.937 669.623 512.494C669.623 513.016 669.623 513.573 669.623 514.165C669.42 515.61 669.29 516.742 669.253 517.577C664.765 517.438 660.314 517.351 655.882 517.299C651.486 517.212 647.109 517.159 642.732 517.159C638.299 517.159 633.903 517.142 629.581 517.09C625.297 517.003 621.086 516.881 616.949 516.742C615.803 516.742 614.898 516.863 614.215 517.09C613.181 517.421 612.479 517.769 612.147 518.134C611.445 518.657 610.983 519.214 610.743 519.806C610.337 520.502 610.152 521.111 610.152 521.616C609.893 523.061 610.318 524.402 611.408 525.655C612.331 526.874 613.956 527.535 616.284 527.675ZM602.247 490.767C605.682 491.011 609.672 491.115 614.215 491.115C618.592 491.359 623.08 491.463 627.661 491.463C629.877 491.516 632.112 491.568 634.383 491.603C636.637 491.655 638.853 491.672 641.032 491.672C645.317 491.916 649.177 492.02 652.631 492.02C654.496 492.073 655.919 491.498 656.916 490.279C657.359 489.688 657.692 489.096 657.95 488.539C658.246 487.947 658.43 487.39 658.541 486.867C658.578 485.718 658.264 484.465 657.581 483.107C656.694 481.958 655.161 481.331 653 481.227C652.446 481.227 651.763 481.227 650.932 481.227C650.138 481.227 649.233 481.209 648.198 481.157C647.016 481.157 645.779 481.157 644.505 481.157C643.267 481.157 641.919 481.122 640.441 481.018C640.589 479.312 640.737 477.658 640.885 476.074C641.032 474.454 641.143 472.922 641.254 471.478C641.346 470.05 641.402 468.814 641.402 467.787C641.402 466.777 641.402 465.941 641.402 465.28C641.143 463.104 640.294 461.554 638.816 460.614C637.228 459.744 635.51 459.413 633.645 459.639C632.204 459.883 631.022 460.388 630.099 461.171C628.917 462.111 628.326 463.469 628.326 465.28C628.326 465.384 628.289 465.541 628.252 465.767C628.252 466.011 628.252 466.359 628.252 466.812C628.141 467.23 628.067 467.752 628.03 468.344C628.03 468.901 628.03 469.51 628.03 470.154C627.771 471.686 627.661 473.323 627.661 475.029C627.55 476.004 627.457 476.961 627.365 477.884C627.31 478.824 627.254 479.799 627.217 480.809C626.663 480.809 626.128 480.791 625.592 480.739C625.038 480.704 624.558 480.67 624.115 480.67C623.56 480.67 623.025 480.67 622.489 480.67C621.935 480.67 621.455 480.652 621.012 480.6C620.901 479.677 620.79 478.772 620.642 477.884C620.532 476.961 620.458 476.056 620.421 475.168C620.31 474.385 620.218 473.619 620.125 472.87C620.07 472.087 620.014 471.321 619.977 470.572C619.719 469.284 619.608 468.205 619.608 467.369C619.497 466.916 619.423 466.568 619.386 466.324C619.386 466.046 619.386 465.889 619.386 465.837C619.128 463.748 618.204 462.216 616.579 461.241C614.991 460.457 613.255 460.179 611.334 460.405C609.856 460.788 608.637 461.38 607.714 462.216C606.717 463.191 606.236 464.618 606.236 466.464C606.236 466.568 606.255 466.742 606.31 467.021C606.347 467.299 606.403 467.63 606.458 467.996C606.458 468.796 606.569 469.806 606.827 471.06C606.827 471.721 606.864 472.418 606.975 473.149C607.123 473.845 607.215 474.594 607.271 475.377C607.363 476.178 607.437 476.979 607.492 477.814C607.585 478.65 607.658 479.521 607.714 480.391C607.16 480.391 606.68 480.374 606.236 480.321C605.793 480.287 605.368 480.252 604.98 480.252C604.537 480.252 604.131 480.252 603.798 480.252C603.448 480.252 603.152 480.234 602.912 480.182C600.843 479.956 599.218 480.356 598.036 481.366C596.743 482.445 596.115 483.56 596.115 484.709C596.004 486.014 596.485 487.32 597.519 488.608C598.405 490.053 599.975 490.767 602.247 490.767ZM660.831 448.428C660.831 451.91 660.942 455.182 661.201 458.246C661.201 459.831 661.238 461.432 661.349 463.051C661.441 464.636 661.589 466.22 661.792 467.787C661.94 469.371 662.087 470.99 662.235 472.661C662.42 474.333 662.641 476.004 662.9 477.675C663.14 479.399 663.417 481.209 663.713 483.107C664.008 484.97 664.304 486.867 664.599 488.817C664.784 489.792 665.116 490.523 665.559 490.976C666.003 491.672 666.538 492.125 667.185 492.299C667.72 492.682 668.33 492.856 669.032 492.856C669.327 492.961 669.586 492.995 669.844 492.995C670.14 492.995 670.435 492.995 670.731 492.995C671.119 492.995 671.71 492.891 672.504 492.647C673.095 492.56 673.778 492.264 674.572 491.742C675.256 491.324 675.865 490.732 676.419 489.931C676.752 489.339 676.937 488.364 676.937 487.007C676.733 485.475 676.53 483.925 676.346 482.341C676.142 480.722 675.976 479.12 675.828 477.536C675.57 476.004 675.348 474.454 675.163 472.87C674.96 471.303 674.794 469.719 674.646 468.135C676.715 468.326 678.747 468.535 680.778 468.762C682.847 469.005 684.841 469.249 686.762 469.528C688.72 469.806 690.696 470.067 692.672 470.294C694.63 470.485 696.606 470.624 698.582 470.711C699.506 470.851 700.374 470.711 701.168 470.294C701.759 470.067 702.369 469.667 703.015 469.11C703.458 468.657 703.865 468.065 704.271 467.369C704.419 466.916 704.566 466.324 704.714 465.628C704.714 465.262 704.714 464.914 704.714 464.583C704.714 464.27 704.659 463.922 704.566 463.539C704.511 463.173 704.419 462.825 704.271 462.494C704.123 462.181 703.975 461.868 703.828 461.589C703.274 460.945 702.683 460.44 702.055 460.057C701.316 459.639 700.392 459.43 699.321 459.43C696.994 459.291 694.759 459.117 692.598 458.873C690.474 458.595 688.387 458.316 686.319 458.038C682.071 457.533 677.842 457.097 673.612 456.714C673.354 453.65 673.243 450.795 673.243 448.149C673.243 447.366 673.058 446.6 672.726 445.851C672.227 445.259 671.691 444.737 671.1 444.319C670.306 443.814 669.641 443.483 669.106 443.344C668.404 443.118 667.776 442.996 667.185 442.996C666.391 442.996 665.652 443.118 664.968 443.344C664.23 443.588 663.528 443.901 662.9 444.319C662.309 444.702 661.81 445.259 661.422 445.99C661.164 446.321 660.998 446.722 660.905 447.174C660.85 447.592 660.831 448.01 660.831 448.428ZM603.355 456.506L624.779 457.132C628.215 457.237 631.687 457.324 635.196 457.411C638.687 457.515 642.214 457.602 645.76 457.689C647.57 457.742 649.011 457.185 650.045 456.018C650.489 455.461 650.821 454.904 651.08 454.347C651.375 453.755 651.541 453.198 651.597 452.676C651.597 452.31 651.597 451.962 651.597 451.631C651.597 451.318 651.56 450.987 651.523 450.656C651.412 450.29 651.301 449.925 651.154 449.542C651.006 449.176 650.858 448.845 650.71 448.567C650.156 447.923 649.565 447.418 648.937 447.035C648.198 446.617 647.238 446.408 646.056 446.408C645.557 446.408 644.874 446.408 643.987 446.408C643.138 446.408 642.177 446.373 641.106 446.269C639.961 446.269 638.779 446.269 637.56 446.269C636.323 446.234 635.067 446.164 633.792 446.06C632.407 446.06 631.004 446.06 629.581 446.06C628.141 446.025 626.7 445.956 625.223 445.851C623.782 445.851 622.342 445.834 620.864 445.781C619.386 445.747 618.001 445.694 616.727 445.642C615.342 445.642 614.012 445.642 612.738 445.642C611.445 445.642 610.3 445.607 609.265 445.503C608.083 445.503 607.067 445.503 606.236 445.503C605.387 445.468 604.648 445.398 604.02 445.294C601.951 445.068 600.345 445.573 599.218 446.826C597.888 448.219 597.223 449.455 597.223 450.517C597.168 451.822 597.63 453.128 598.627 454.416C599.606 455.809 601.176 456.506 603.355 456.506Z" fill="white"/>
<path d="M753.877 457.48C753.766 456.47 753.526 455.565 753.138 454.764C752.935 454.398 752.714 454.067 752.473 453.789C752.215 453.51 751.956 453.214 751.661 452.884C750.922 452.379 750.276 452.048 749.74 451.909C749.038 451.735 748.355 451.63 747.671 451.63C745.344 451.456 743.719 451.909 742.796 453.023C741.651 454.189 741.17 455.86 741.318 458.037C741.318 458.698 741.318 459.412 741.318 460.195C741.355 460.996 741.429 461.902 741.54 462.911C741.54 464.913 741.651 467.194 741.909 469.736H734.078C732.748 469.788 731.419 469.805 730.089 469.805C728.759 469.805 727.429 469.805 726.099 469.805C725.989 468.97 725.896 468.064 725.804 467.089C725.749 466.115 725.693 465.07 725.656 463.956C725.398 461.867 725.158 459.22 724.917 456.017C724.714 453.789 723.994 452.361 722.775 451.7C722.073 451.334 721.408 451.108 720.78 451.003C720.189 450.916 719.561 450.864 718.933 450.864C718.638 450.864 718.342 450.899 718.047 450.934C717.788 450.934 717.474 450.986 717.086 451.073C716.348 451.264 715.646 451.595 715.018 452.048C714.464 452.431 713.984 453.005 713.54 453.789C713.097 454.729 712.894 455.721 712.949 456.783C712.949 458.089 712.986 459.412 713.097 460.752C713.245 462.058 713.356 463.434 713.466 464.861C713.503 466.306 713.577 467.751 713.688 469.179C713.836 470.571 713.928 471.999 713.984 473.426C714.076 474.871 714.15 476.316 714.205 477.744C714.298 479.137 714.39 480.495 714.501 481.783C714.538 483.176 714.593 484.499 714.649 485.752C714.685 486.971 714.722 488.102 714.722 489.164C714.722 492.368 715.554 494.77 717.234 496.337C718.896 497.921 721.445 498.757 724.844 498.844C726.469 498.896 728.057 498.948 729.646 498.983C731.215 499.035 732.711 499.018 734.152 498.914C735.63 498.914 737.107 498.914 738.585 498.914C740.099 498.879 741.651 498.809 743.239 498.705C744.07 498.705 744.883 498.67 745.677 498.565C746.453 498.478 747.191 498.391 747.893 498.287C749.167 498.061 750.276 497.625 751.218 496.964C752.141 496.32 752.843 495.397 753.286 494.178C753.526 493.586 753.729 492.89 753.877 492.089C754.025 491.306 754.117 490.383 754.173 489.304C754.357 487.406 754.468 485.665 754.468 484.081C754.505 482.462 754.579 481.052 754.69 479.833V473.078C754.579 472.069 754.505 470.989 754.468 469.875C754.468 468.761 754.468 467.629 754.468 466.463C754.357 465.314 754.265 463.991 754.173 462.493C754.117 460.961 754.025 459.29 753.877 457.48ZM771.017 449.541C771.017 453.545 771.127 457.375 771.386 461.031C771.423 462.981 771.534 464.913 771.681 466.811C771.866 468.674 772.069 470.554 772.272 472.452C772.42 474.401 772.605 476.351 772.864 478.301C773.104 480.216 773.381 482.131 773.676 484.081C773.916 486.083 774.212 488.102 774.563 490.139C774.895 492.194 775.228 494.248 775.523 496.337C775.671 497.277 775.966 497.991 776.41 498.496C776.89 499.157 777.444 499.593 778.035 499.819C778.57 500.202 779.18 500.376 779.882 500.376C780.177 500.428 780.436 500.446 780.694 500.446C780.99 500.446 781.285 500.446 781.581 500.446C781.969 500.446 782.56 500.341 783.354 500.097C783.945 500.063 784.628 499.784 785.423 499.262C786.106 498.844 786.715 498.217 787.269 497.382C787.657 496.824 787.861 495.85 787.861 494.457C787.51 492.368 787.214 490.261 786.974 488.12C786.771 485.996 786.549 483.872 786.309 481.783C786.014 479.694 785.737 477.605 785.496 475.516C785.293 473.392 785.072 471.268 784.832 469.179C786.9 469.422 788.932 469.649 790.963 469.875C793.032 470.066 795.027 470.293 796.947 470.571C798.905 470.902 800.881 471.181 802.858 471.407C804.815 471.598 806.791 471.738 808.768 471.825C809.691 471.964 810.559 471.807 811.353 471.337C811.944 471.163 812.554 470.763 813.2 470.153C813.644 469.736 814.05 469.161 814.456 468.413C814.604 467.995 814.752 467.42 814.899 466.672C814.899 466.306 814.899 465.958 814.899 465.627C814.899 465.314 814.844 464.983 814.752 464.652C814.696 464.287 814.604 463.938 814.456 463.608C814.308 463.294 814.161 462.981 814.013 462.702C813.459 462.058 812.868 461.553 812.24 461.17C811.501 460.718 810.578 460.474 809.506 460.474C807.179 460.335 804.945 460.161 802.784 459.917C800.66 459.638 798.573 459.36 796.504 459.081C792.256 458.576 788.027 458.141 783.797 457.758C783.742 457.062 783.686 456.365 783.65 455.669C783.594 454.938 783.576 454.189 783.576 453.441C783.465 452.796 783.428 452.118 783.428 451.421C783.428 450.69 783.428 449.941 783.428 449.193C783.428 448.409 783.243 447.661 782.911 446.964C782.412 446.372 781.876 445.85 781.285 445.432C780.491 444.927 779.826 444.597 779.291 444.457C778.589 444.231 777.961 444.109 777.37 444.109C775.985 444.109 774.6 444.562 773.233 445.432C771.755 446.268 771.017 447.643 771.017 449.541ZM774.489 507.2C773.935 506.33 773.251 505.564 772.42 504.902C771.478 504.397 770.056 504.189 768.135 504.276C765.476 504.467 762.742 505.076 759.935 506.086C758.55 506.608 757.275 507.2 756.093 507.897C754.911 508.593 753.766 509.359 752.695 510.195C750.479 512.11 748.743 514.216 747.524 516.532C746.139 519.004 745.455 521.737 745.455 524.749C745.455 528.596 746.711 531.887 749.223 534.637C751.624 537.231 755.299 538.763 760.231 539.233C761.597 539.268 762.982 539.233 764.368 539.094C765.734 538.955 767.12 538.746 768.505 538.467C771.017 537.719 773.418 536.552 775.745 534.986C776.816 534.185 777.758 533.314 778.552 532.339C779.383 531.364 780.14 530.32 780.842 529.206C781.433 528.039 781.876 526.821 782.172 525.515C782.504 524.227 782.689 522.851 782.689 521.406C782.689 518.865 781.969 516.358 780.547 513.886C779.162 511.518 777.241 509.69 774.784 508.384C774.784 508.019 774.673 507.618 774.489 507.2ZM769.982 521.197C769.871 523.06 769.244 524.679 768.062 526.072C766.824 527.465 764.903 528.161 762.299 528.161C760.969 528.161 759.88 527.83 759.049 527.186C758.107 526.594 757.645 525.689 757.645 524.47C757.645 522.207 758.494 520.327 760.231 518.83C761.8 517.35 763.74 516.253 766.067 515.557C767.581 516.358 768.671 517.28 769.317 518.342C769.761 519.456 769.982 520.414 769.982 521.197ZM742.131 487.981H731.049C730.458 487.981 729.812 487.981 729.128 487.981C728.482 487.981 727.817 487.946 727.134 487.841C727.078 486.553 727.023 485.317 726.986 484.151C726.931 483.002 726.857 481.922 726.764 480.947C728.094 480.947 729.424 480.93 730.754 480.878C732.083 480.843 733.358 480.808 734.595 480.808C735.925 480.808 737.199 480.808 738.437 480.808C739.711 480.808 740.967 480.773 742.205 480.669V484.29C742.205 484.951 742.168 485.578 742.131 486.17C742.131 486.779 742.131 487.389 742.131 487.981Z" fill="white"/>
</svg>
