<svg width="18" height="18" viewBox="0 0 18 18" fill="none" xmlns="http://www.w3.org/2000/svg">
<path d="M5.625 5.0625H7.875H5.625ZM5.625 9H12.375H5.625ZM5.625 11.25H12.375H5.625ZM5.625 13.5H7.875H5.625ZM4.5 16.3125H13.5C13.7984 16.3125 14.0845 16.194 14.2955 15.983C14.5065 15.772 14.625 15.4859 14.625 15.1875V2.8125C14.625 2.51413 14.5065 2.22798 14.2955 2.017C14.0845 1.80603 13.7984 1.6875 13.5 1.6875H4.5C4.20163 1.6875 3.91548 1.80603 3.7045 2.017C3.49353 2.22798 3.375 2.51413 3.375 2.8125V15.1875C3.375 15.4859 3.49353 15.772 3.7045 15.983C3.91548 16.194 4.20163 16.3125 4.5 16.3125Z" fill="#0D0E0F"/>
<path d="M5.625 5.0625H7.875M5.625 9H12.375M5.625 11.25H12.375M5.625 13.5H7.875M4.5 16.3125H13.5C13.7984 16.3125 14.0845 16.194 14.2955 15.983C14.5065 15.772 14.625 15.4859 14.625 15.1875V2.8125C14.625 2.51413 14.5065 2.22798 14.2955 2.017C14.0845 1.80603 13.7984 1.6875 13.5 1.6875H4.5C4.20163 1.6875 3.91548 1.80603 3.7045 2.017C3.49353 2.22798 3.375 2.51413 3.375 2.8125V15.1875C3.375 15.4859 3.49353 15.772 3.7045 15.983C3.91548 16.194 4.20163 16.3125 4.5 16.3125Z" stroke="white" stroke-width="1.125" stroke-linecap="round" stroke-linejoin="round"/>
<path d="M12.375 5.34375C12.5303 5.34375 12.6562 5.21783 12.6562 5.0625C12.6562 4.90717 12.5303 4.78125 12.375 4.78125C12.2197 4.78125 12.0938 4.90717 12.0938 5.0625C12.0938 5.21783 12.2197 5.34375 12.375 5.34375Z" fill="white" stroke="white" stroke-width="0.5625"/>
</svg>
