<svg width="17" height="18" viewBox="0 0 17 18" fill="none" xmlns="http://www.w3.org/2000/svg">
<path fill-rule="evenodd" clip-rule="evenodd" d="M11.1981 1.22004L1.12013 11.298C0.969476 11.4483 0.870687 11.6428 0.838133 11.853L0.133133 16.447C0.109343 16.6022 0.122416 16.7608 0.171292 16.91C0.220169 17.0591 0.303477 17.1947 0.414475 17.3057C0.525473 17.4167 0.661044 17.5 0.810216 17.5489C0.959387 17.5978 1.11797 17.6108 1.27313 17.587L5.86813 16.882C6.0783 16.8498 6.27271 16.7513 6.42313 16.601L16.5011 6.52304C16.6886 6.33552 16.7939 6.08121 16.7939 5.81604C16.7939 5.55088 16.6886 5.29657 16.5011 5.10905L12.6111 1.21904C12.4236 1.03188 12.1696 0.926758 11.9046 0.926758C11.6397 0.926758 11.3856 1.03188 11.1981 1.21904M2.31713 15.404L2.76513 12.48L11.9051 3.34004L14.3801 5.81604L5.24013 14.956L2.31713 15.404Z" fill="black"/>
<path d="M9.44189 5.24704L10.5019 4.18604L13.7439 7.42604L12.6829 8.48704L9.44189 5.24704Z" fill="black"/>
</svg>
