<svg width="30" height="30" viewBox="0 0 30 30" fill="none" xmlns="http://www.w3.org/2000/svg">
<path d="M13.375 21.625L19.125 15.875C19.25 15.75 19.3383 15.6146 19.39 15.4687C19.4425 15.3229 19.4688 15.1667 19.4688 15C19.4688 14.8333 19.4425 14.6771 19.39 14.5312C19.3383 14.3854 19.25 14.25 19.125 14.125L13.375 8.375C13.1458 8.14583 12.8542 8.03125 12.5 8.03125C12.1458 8.03125 11.8542 8.14583 11.625 8.375C11.3958 8.60417 11.2812 8.89583 11.2812 9.25C11.2812 9.60417 11.3958 9.89583 11.625 10.125L16.5 15L11.625 19.875C11.3958 20.1042 11.2812 20.3958 11.2812 20.75C11.2812 21.1042 11.3958 21.3958 11.625 21.625C11.8542 21.8542 12.1458 21.9687 12.5 21.9687C12.8542 21.9687 13.1458 21.8542 13.375 21.625Z" fill="white"/>
</svg>
