<svg width="24" height="24" viewBox="0 0 24 24" fill="none" xmlns="http://www.w3.org/2000/svg">
<path d="M14.4497 14.2699L14.5586 14.375H14.71H15.3441L19.4742 18.5245L19.4748 18.5251C19.7384 18.7887 19.7384 19.2213 19.4748 19.4848C19.2113 19.7484 18.7787 19.7484 18.5151 19.4848L14.375 15.3446V14.71V14.5586L14.2699 14.4497L13.9999 14.1697L13.7539 13.9146L13.4853 14.1458C12.8012 14.7347 11.9953 15.1651 11.1254 15.4061C10.2555 15.6472 9.34309 15.6931 8.45341 15.5404L8.45249 15.5402C5.83577 15.0978 3.74217 12.9095 3.42225 10.2748L3.42201 10.2729C3.30465 9.34527 3.40106 8.40308 3.70386 7.51844C4.00665 6.63379 4.50781 5.83014 5.16897 5.16897C5.83014 4.50781 6.63379 4.00665 7.51844 3.70386C8.40308 3.40106 9.34527 3.30465 10.2729 3.42201L10.2748 3.42224C12.9095 3.74217 15.0978 5.83577 15.5402 8.45249L15.5404 8.45341C15.6931 9.34309 15.6472 10.2555 15.4061 11.1254C15.1651 11.9953 14.7347 12.8012 14.1458 13.4853L13.9146 13.7539L14.1697 13.9999L14.4497 14.2699ZM4.62497 9.49997C4.62497 12.1971 6.80287 14.375 9.49997 14.375C12.1971 14.375 14.375 12.1971 14.375 9.49997C14.375 6.80287 12.1971 4.62497 9.49997 4.62497C6.80287 4.62497 4.62497 6.80287 4.62497 9.49997Z" fill="black" stroke="black" stroke-width="0.75"/>
</svg>
