<svg width="18" height="18" viewBox="0 0 18 18" fill="none" xmlns="http://www.w3.org/2000/svg">
<path d="M17.5052 15.1195L13.3758 10.9897C12.7605 11.9467 11.9462 12.7605 10.9893 13.3759L15.1191 17.5057C15.7783 18.1648 16.8473 18.1648 17.5052 17.5057C18.1645 16.8476 18.1645 15.7786 17.5052 15.1195Z" fill="#A6A6A6"/>
<path d="M13.4999 6.75C13.4999 3.02241 10.4777 0 6.75 0C3.02241 0 0 3.02241 0 6.75C0 10.4776 3.02241 13.4999 6.75 13.4999C10.4777 13.4999 13.4999 10.4776 13.4999 6.75ZM6.75 11.8123C3.95837 11.8123 1.68755 9.54167 1.68755 6.75004C1.68755 3.95841 3.95837 1.68758 6.75 1.68758C9.54156 1.68758 11.8126 3.95841 11.8126 6.75004C11.8126 9.54167 9.54156 11.8123 6.75 11.8123Z" fill="#A6A6A6"/>
<path d="M2.8125 6.74995H3.93736C3.93736 5.19918 5.19918 3.93747 6.74991 3.93747V2.8125C4.5791 2.8125 2.8125 4.5791 2.8125 6.74995Z" fill="#A6A6A6"/>
</svg>
