<svg width="48" height="48" viewBox="0 0 48 48" fill="none" xmlns="http://www.w3.org/2000/svg">
<rect width="47.9167" height="47.9167" rx="23.9583" fill="black"/>
<path d="M12.5356 11.9489C12.5239 13.842 13.4733 15.7526 15.1144 16.5438L14.3173 17.5871C13.1686 17.0068 12.3422 15.8874 11.8909 14.5394C11.4279 15.9812 10.5605 17.1768 9.3473 17.7863L8.55023 16.7431C10.2557 15.9343 11.2286 13.9065 11.2345 11.9489V10.261H12.5356V11.9489ZM15.7473 20.0017V9.40533H17.0484V13.5548H18.6778V14.6684H17.0484V20.0017H15.7473ZM28.7818 14.5043V15.5475H19.1232V14.5043H21.3737V13.1621C20.5708 12.8222 20.1195 12.2889 20.1195 11.5973C20.1195 10.3255 21.6023 9.58115 23.9408 9.58115C26.2734 9.58115 27.7562 10.3255 27.7621 11.5973C27.7562 12.2947 27.2991 12.8281 26.4961 13.1621V14.5043H28.7818ZM20.2485 18.0794C20.2485 16.8603 21.6258 16.1805 23.9408 16.1922C26.2207 16.1805 27.6038 16.8603 27.6097 18.0794C27.6038 19.3101 26.2207 19.9783 23.9408 19.9783C21.6258 19.9783 20.2485 19.3101 20.2485 18.0794ZM21.4792 11.5973C21.4675 12.242 22.3759 12.5878 23.9408 12.5819C25.4998 12.5878 26.4141 12.242 26.4141 11.5973C26.4141 10.9467 25.4998 10.5834 23.9408 10.5892C22.3759 10.5834 21.4675 10.9467 21.4792 11.5973ZM21.573 18.0794C21.5672 18.6772 22.3994 18.9995 23.9408 18.9937C25.4587 18.9995 26.2968 18.6772 26.3086 18.0794C26.2968 17.4874 25.4587 17.1827 23.9408 17.1768C22.3994 17.1827 21.5672 17.4874 21.573 18.0794ZM22.6866 14.5043H25.195V13.4962C24.8141 13.5489 24.3921 13.5782 23.9408 13.5782C23.4895 13.5782 23.0675 13.5489 22.6866 13.4962V14.5043ZM33.2947 12.4178C33.2888 14.053 34.2735 15.9167 35.9438 16.6962L35.217 17.7277C34.0214 17.1651 33.1364 16.0281 32.6617 14.7035C32.1811 16.157 31.2551 17.3995 30.0361 17.9856L29.2742 16.9658C30.9621 16.1629 31.9877 14.1819 31.9936 12.4178V11.527H29.6844V10.4486H35.5101V11.527H33.2947V12.4178ZM36.4947 20.0017V9.40533H37.7958V13.5314H39.4251V14.6215H37.7958V20.0017H36.4947ZM14.4286 36.9585V30.5936H15.929V36.9585H14.4286ZM14.3232 28.8705C14.3232 28.4251 14.7158 28.0617 15.1906 28.0617C15.6653 28.0617 16.058 28.4251 16.058 28.8705C16.058 29.3218 15.6653 29.6852 15.1906 29.6911C14.7158 29.6852 14.3232 29.3218 14.3232 28.8705ZM17.3591 36.9585V30.5936H18.7891V31.672H18.8712C19.1349 30.9453 19.7737 30.5116 20.6177 30.5116C21.4792 30.5116 22.1005 30.9511 22.3408 31.672H22.4111C22.6866 30.9687 23.3957 30.5116 24.3217 30.5116C25.4881 30.5116 26.3086 31.2618 26.3027 32.6801V36.9585H24.8141V32.9145C24.8141 32.1233 24.3335 31.7658 23.7239 31.7658C22.9913 31.7658 22.5635 32.264 22.5635 32.9848V36.9585H21.11V32.8559C21.1041 32.1936 20.6704 31.7658 20.0316 31.7658C19.3869 31.7658 18.8594 32.2991 18.8594 33.0903V36.9585H17.3591ZM30.5108 39.4787C28.8229 39.4787 27.7503 38.7285 27.6507 37.5329H29.1394C29.2449 38.0896 29.7665 38.3475 30.5342 38.3534C31.4309 38.3475 32.0112 37.9607 32.0112 37.0288V35.8098H31.9408C31.7064 36.2786 31.1965 36.8647 30.1005 36.8647C28.6295 36.8647 27.4749 35.798 27.4749 33.7233C27.4749 31.631 28.6353 30.5116 30.1123 30.5116C31.2317 30.5116 31.7064 31.1856 31.9408 31.6369H32.0112V30.5936H33.4881V37.064C33.4881 38.6933 32.228 39.4787 30.5108 39.4787ZM28.9987 33.7468C28.9987 34.9189 29.5262 35.6926 30.5108 35.6926C31.4778 35.6926 32.0229 34.9658 32.0229 33.7468C32.0229 32.5336 31.4837 31.7365 30.5108 31.7306C29.5145 31.7365 28.9987 32.5863 28.9987 33.7468Z" fill="white"/>
</svg>
