<svg width="32" height="32" viewBox="0 0 32 32" fill="none" xmlns="http://www.w3.org/2000/svg">
<rect x="0.166626" y="0.166504" width="31.6667" height="31.6667" rx="15.8333" fill="black"/>
<path d="M6.47027 20V13.6351H7.97065V20H6.47027ZM6.36478 11.912C6.36478 11.4666 6.75746 11.1032 7.23218 11.1032C7.70691 11.1032 8.09959 11.4666 8.09959 11.912C8.09959 12.3633 7.70691 12.7267 7.23218 12.7326C6.75746 12.7267 6.36478 12.3633 6.36478 11.912ZM9.40069 20V13.6351H10.8307V14.7135H10.9128C11.1765 13.9868 11.8154 13.5531 12.6593 13.5531C13.5209 13.5531 14.1421 13.9926 14.3824 14.7135H14.4527C14.7282 14.0102 15.4374 13.5531 16.3634 13.5531C17.5297 13.5531 18.3502 14.3033 18.3443 15.7216V20H16.8557V15.956C16.8557 15.1648 16.3751 14.8073 15.7656 14.8073C15.033 14.8073 14.6051 15.3055 14.6051 16.0264V20H13.1516V15.8974C13.1458 15.2351 12.7121 14.8073 12.0732 14.8073C11.4285 14.8073 10.9011 15.3406 10.9011 16.1318V20H9.40069ZM22.5524 22.5202C20.8645 22.5202 19.792 21.77 19.6923 20.5744H21.181C21.2865 21.1311 21.8081 21.389 22.5759 21.3949C23.4726 21.389 24.0528 21.0022 24.0528 20.0703V18.8513H23.9825C23.748 19.3201 23.2381 19.9062 22.1422 19.9062C20.6711 19.9062 19.5165 18.8396 19.5165 16.7648C19.5165 14.6725 20.677 13.5531 22.1539 13.5531C23.2733 13.5531 23.748 14.2271 23.9825 14.6784H24.0528V13.6351H25.5297V20.1055C25.5297 21.7348 24.2696 22.5202 22.5524 22.5202ZM21.0403 16.7883C21.0403 17.9604 21.5678 18.7341 22.5524 18.7341C23.5195 18.7341 24.0645 18.0073 24.0645 16.7883C24.0645 15.5751 23.5253 14.778 22.5524 14.7721C21.5561 14.778 21.0403 15.6278 21.0403 16.7883Z" fill="white"/>
</svg>
