<svg width="49" height="48" viewBox="0 0 49 48" fill="none" xmlns="http://www.w3.org/2000/svg">
<rect x="0.166626" y="0.0415039" width="47.9167" height="47.9167" rx="23.9583" fill="black"/>
<path d="M14.1982 28.5V21.8699H15.7611V28.5H14.1982ZM14.0883 20.075C14.0883 19.6111 14.4973 19.2325 14.9919 19.2325C15.4864 19.2325 15.8954 19.6111 15.8954 20.075C15.8954 20.5451 15.4864 20.9236 14.9919 20.9297C14.4973 20.9236 14.0883 20.5451 14.0883 20.075ZM17.2507 28.5V21.8699H18.7404V22.9933H18.8258C19.1006 22.2362 19.766 21.7845 20.6451 21.7845C21.5426 21.7845 22.1897 22.2423 22.44 22.9933H22.5133C22.8002 22.2606 23.5389 21.7845 24.5035 21.7845C25.7184 21.7845 26.5731 22.5659 26.567 24.0433V28.5H25.0163V24.2875C25.0163 23.4633 24.5157 23.0909 23.8808 23.0909C23.1177 23.0909 22.672 23.6099 22.672 24.3608V28.5H21.1579V24.2265C21.1518 23.5366 20.7001 23.0909 20.0346 23.0909C19.3631 23.0909 18.8136 23.6465 18.8136 24.4707V28.5H17.2507ZM30.9504 31.1252C29.1922 31.1252 28.075 30.3437 27.9712 29.0983H29.5219C29.6317 29.6783 30.1751 29.9469 30.9749 29.953C31.9089 29.9469 32.5133 29.544 32.5133 28.5733V27.3034H32.4401C32.1959 27.7918 31.6647 28.4023 30.5231 28.4023C28.9907 28.4023 27.788 27.2912 27.788 25.13C27.788 22.9505 28.9968 21.7845 30.5353 21.7845C31.7014 21.7845 32.1959 22.4865 32.4401 22.9566H32.5133V21.8699H34.0518V28.6099C34.0518 30.3071 32.7392 31.1252 30.9504 31.1252ZM29.3753 25.1544C29.3753 26.3754 29.9248 27.1813 30.9504 27.1813C31.9578 27.1813 32.5255 26.4243 32.5255 25.1544C32.5255 23.8907 31.9639 23.0604 30.9504 23.0543C29.9126 23.0604 29.3753 23.9456 29.3753 25.1544Z" fill="white"/>
</svg>
